<svg width="823" height="190" viewBox="0 0 823 190" fill="none" xmlns="http://www.w3.org/2000/svg">
<path d="M94.1372 2.42621H119.855V139.022H72.7865L25.9605 13.3442H25.4753V139.022H0V2.42621H43.6719L93.6519 128.104H94.1372V2.42621Z" fill="black"/>
<path d="M138.402 139.022L186.441 2.42621H212.159L260.926 139.022H244.428L229.628 96.3208H169.701L154.901 139.022H138.402ZM199.786 9.21962L174.068 83.2192H225.261L199.786 9.21962Z" fill="black"/>
<path d="M337.356 142.419C317.946 142.419 303.146 137.081 292.956 126.406C282.928 115.569 277.914 100.364 277.914 80.793V2.42621H304.359V80.5504C304.359 90.5787 305.977 98.3426 309.212 103.842C312.447 109.341 316.571 113.223 321.585 115.488C326.6 117.752 331.856 118.885 337.356 118.885C337.821 118.885 427.211 118.879 427.67 118.867C433.272 118.72 438.391 117.674 443.026 115.731C448.04 113.466 452.003 109.584 454.915 104.085C457.988 98.5852 459.524 90.7405 459.524 80.5504V2.42621H485.728V80.793C485.728 100.688 480.713 115.973 470.685 126.648C461.05 136.915 446.712 142.169 427.67 142.41C427.211 142.416 337.82 142.419 337.356 142.419Z" fill="black"/>
<path d="M566.697 141.448C558.933 141.448 551.331 140.559 543.89 138.78C536.45 137 529.737 134.17 523.753 130.288C517.768 126.244 512.916 121.068 509.195 114.76C505.637 108.452 503.858 100.85 503.858 91.9536H537.825C537.825 92.9241 538.148 94.4607 538.795 96.5634C539.604 98.5044 541.06 100.607 543.163 102.872C545.427 105.136 548.581 107.077 552.625 108.694C556.83 110.15 562.41 110.878 569.366 110.878C572.439 110.878 575.593 110.635 578.828 110.15C582.063 109.665 584.813 108.694 587.077 107.239C589.342 105.621 590.474 103.195 590.474 99.9601C590.474 96.5634 588.856 93.8946 585.621 91.9536C582.548 90.0126 578.424 88.476 573.248 87.3438C568.233 86.0498 562.653 84.7558 556.507 83.4618C550.522 82.1679 544.537 80.5504 538.553 78.6094C532.568 76.6684 527.069 74.0805 522.054 70.8455C517.202 67.4488 513.401 63.1625 510.651 57.9866C508.063 52.6489 507.012 46.0172 507.497 38.0916C508.306 26.1223 513.967 16.8218 524.481 10.1901C534.994 3.39671 549.632 0 568.395 0C578.424 0 587.805 1.77923 596.539 5.33768C605.435 8.89612 612.633 14.3147 618.133 21.5933C623.794 28.872 626.624 38.0916 626.624 49.2522H593.87C593.87 44.238 592.172 40.5178 588.775 38.0916C585.54 35.5036 581.578 33.8053 576.887 32.9965C572.358 32.1878 568.233 31.7834 564.513 31.7834C558.529 31.7834 553.514 32.5113 549.471 33.967C545.589 35.4228 543.648 38.2533 543.648 42.4588C543.648 46.179 545.265 49.0904 548.5 51.1932C551.735 53.1341 555.941 54.7516 561.117 56.0456C566.292 57.1778 571.954 58.3909 578.1 59.6849C584.408 60.8171 590.635 62.2729 596.782 64.0521C602.928 65.8313 608.428 68.3384 613.28 71.5734C618.294 74.6466 622.176 78.7712 624.926 83.9471C627.837 89.123 628.97 95.7547 628.323 103.842C627.514 115.65 621.529 124.869 610.369 131.501C599.37 138.133 584.813 141.448 566.697 141.448Z" fill="black"/>
<path d="M708.384 141.448C700.62 141.448 693.018 140.559 685.578 138.78C678.137 137 671.425 134.17 665.44 130.288C659.455 126.244 654.603 121.068 650.883 114.76C647.324 108.452 645.545 100.85 645.545 91.9536H679.512C679.512 92.9241 679.836 94.4607 680.483 96.5634C681.291 98.5044 682.747 100.607 684.85 102.872C687.114 105.136 690.268 107.077 694.312 108.694C698.517 110.15 704.098 110.878 711.053 110.878C714.126 110.878 717.28 110.635 720.515 110.15C723.75 109.665 726.5 108.694 728.764 107.239C731.029 105.621 732.161 103.195 732.161 99.9601C732.161 96.5634 730.543 93.8946 727.309 91.9536C724.235 90.0126 720.111 88.476 714.935 87.3438C709.921 86.0498 704.34 84.7558 698.194 83.4618C692.209 82.1679 686.225 80.5504 680.24 78.6094C674.255 76.6684 668.756 74.0805 663.742 70.8455C658.889 67.4488 655.088 63.1625 652.338 57.9866C649.75 52.6489 648.699 46.0172 649.184 38.0916C649.993 26.1223 655.654 16.8218 666.168 10.1901C676.681 3.39671 691.32 0 710.082 0C720.111 0 729.492 1.77923 738.226 5.33768C747.123 8.89612 754.32 14.3147 759.82 21.5933C765.481 28.872 768.312 38.0916 768.312 49.2522H735.558C735.558 44.238 733.859 40.5178 730.463 38.0916C727.228 35.5036 723.265 33.8053 718.574 32.9965C714.045 32.1878 709.921 31.7834 706.2 31.7834C700.216 31.7834 695.202 32.5113 691.158 33.967C687.276 35.4228 685.335 38.2533 685.335 42.4588C685.335 46.179 686.952 49.0904 690.187 51.1932C693.422 53.1341 697.628 54.7516 702.804 56.0456C707.98 57.1778 713.641 58.3909 719.787 59.6849C726.095 60.8171 732.323 62.2729 738.469 64.0521C744.616 65.8313 750.115 68.3384 754.967 71.5734C759.982 74.6466 763.863 78.7712 766.613 83.9471C769.525 89.123 770.657 95.7547 770.01 103.842C769.201 115.65 763.217 124.869 752.056 131.501C741.057 138.133 726.5 141.448 708.384 141.448Z" fill="black"/>
<path fill-rule="evenodd" clip-rule="evenodd" d="M801.981 42.0398C813.59 42.0398 823.001 32.6289 823.001 21.0201C823.001 9.41126 813.59 0.000427246 801.981 0.000427246C790.372 0.000427246 780.961 9.41126 780.961 21.0201C780.961 32.6289 790.372 42.0398 801.981 42.0398ZM801.982 38.9511C811.843 38.9511 819.837 30.9569 819.837 21.0956C819.837 11.2344 811.843 3.24021 801.982 3.24021C792.121 3.24021 784.126 11.2344 784.126 21.0956C784.126 30.9569 792.121 38.9511 801.982 38.9511Z" fill="black"/>
<path d="M802.21 28.6087C798.804 28.6087 796.294 27.8852 794.681 26.4381C793.068 24.9911 792.262 22.926 792.262 20.243C792.262 17.5449 793.068 15.412 794.681 13.8444C796.294 12.2768 798.804 11.493 802.21 11.493C806.973 11.493 810.161 13.1284 811.774 16.3993C810.418 16.8666 808.827 17.5675 807.004 18.502C806.566 17.6579 805.873 17.0324 804.923 16.6254C803.989 16.2184 803.032 16.015 802.052 16.015C800.605 16.015 799.527 16.3993 798.819 17.1681C798.11 17.9217 797.756 18.8563 797.756 19.9717C797.756 21.1775 798.133 22.1648 798.887 22.9336C799.655 23.6872 800.824 24.0641 802.391 24.0641C803.642 24.0641 804.637 23.8606 805.376 23.4536C806.114 23.0316 806.657 22.3683 807.004 21.4639C808.24 22.1272 809.822 22.8733 811.752 23.7023C810.998 25.5262 809.739 26.7999 807.976 27.5234C806.212 28.2469 804.29 28.6087 802.21 28.6087Z" fill="black"/>
<path d="M522.286 176.938L518.531 179.656L518.335 179.067H526.573V181.169H516.205V179.067C517.419 178.152 518.493 177.377 519.427 176.741C520.38 176.106 521.184 175.537 521.837 175.032C522.491 174.528 522.986 174.014 523.323 173.491C523.677 172.968 523.855 172.361 523.855 171.669C523.855 171.146 523.752 170.689 523.547 170.296C523.341 169.885 523.024 169.568 522.594 169.344C522.183 169.101 521.641 168.979 520.969 168.979C520.147 168.979 519.437 169.241 518.839 169.764C518.241 170.287 517.942 170.969 517.942 171.81H515.981C515.887 170.876 516.055 170.044 516.485 169.316C516.934 168.568 517.55 167.98 518.335 167.55C519.138 167.102 520.016 166.878 520.969 166.878C521.791 166.878 522.519 167.009 523.154 167.27C523.79 167.513 524.322 167.849 524.752 168.279C525.2 168.709 525.536 169.204 525.76 169.764C525.985 170.324 526.097 170.913 526.097 171.529C526.097 172.09 526.003 172.604 525.816 173.071C525.648 173.538 525.396 173.986 525.06 174.416C524.742 174.845 524.35 175.266 523.883 175.677C523.416 176.088 522.884 176.508 522.286 176.938ZM534.451 175.845L534.479 175.705C535.189 175.761 535.843 175.882 536.44 176.069C537.038 176.256 537.561 176.536 538.01 176.91C538.458 177.265 538.804 177.732 539.046 178.311C539.289 178.89 539.411 179.59 539.411 180.412C539.411 181.365 539.186 182.234 538.738 183.018C538.29 183.822 537.655 184.457 536.833 184.924C536.029 185.41 535.086 185.652 534.002 185.652C532.994 185.652 532.069 185.41 531.228 184.924C530.406 184.457 529.762 183.822 529.295 183.018C528.846 182.234 528.669 181.365 528.762 180.412H530.724C530.724 181.01 530.855 181.543 531.116 182.01C531.378 182.495 531.751 182.878 532.237 183.159C532.723 183.439 533.311 183.579 534.002 183.579C534.974 183.579 535.74 183.28 536.3 182.682C536.879 182.084 537.169 181.29 537.169 180.3C537.169 179.31 536.851 178.507 536.216 177.89C535.6 177.274 534.75 176.966 533.666 176.966H532.069V174.892H533.666C534.376 174.892 534.974 174.771 535.46 174.528C535.945 174.266 536.31 173.902 536.552 173.435C536.795 172.968 536.917 172.435 536.917 171.838C536.917 170.997 536.664 170.315 536.16 169.792C535.674 169.25 534.936 168.979 533.946 168.979C533.124 168.979 532.424 169.25 531.845 169.792C531.266 170.315 530.976 170.997 530.976 171.838H529.014C528.94 171.146 529.014 170.502 529.239 169.904C529.482 169.306 529.836 168.783 530.304 168.335C530.771 167.868 531.312 167.513 531.929 167.27C532.564 167.009 533.236 166.878 533.946 166.878C534.993 166.878 535.908 167.102 536.693 167.55C537.477 167.98 538.084 168.568 538.514 169.316C538.944 170.063 539.158 170.904 539.158 171.838C539.158 172.604 539.037 173.248 538.794 173.771C538.57 174.276 538.243 174.677 537.813 174.976C537.402 175.275 536.907 175.49 536.328 175.621C535.749 175.751 535.123 175.826 534.451 175.845ZM548.352 173.043C547.156 173.043 546.101 172.79 545.185 172.286C544.289 171.782 543.588 171.09 543.084 170.212C542.579 169.316 542.327 168.307 542.327 167.186C542.327 166.065 542.579 165.066 543.084 164.188C543.588 163.291 544.289 162.581 545.185 162.058C546.101 161.535 547.156 161.273 548.352 161.273C549.547 161.273 550.594 161.535 551.49 162.058C552.387 162.581 553.078 163.291 553.564 164.188C554.068 165.066 554.321 166.065 554.321 167.186C554.321 168.307 554.068 169.316 553.564 170.212C553.078 171.09 552.387 171.782 551.49 172.286C550.594 172.79 549.547 173.043 548.352 173.043ZM548.352 170.969C549.118 170.969 549.781 170.81 550.341 170.493C550.902 170.156 551.332 169.708 551.63 169.148C551.948 168.568 552.107 167.915 552.107 167.186C552.107 166.457 551.948 165.804 551.63 165.224C551.332 164.645 550.902 164.188 550.341 163.851C549.781 163.515 549.118 163.347 548.352 163.347C547.586 163.347 546.913 163.515 546.334 163.851C545.774 164.188 545.335 164.645 545.017 165.224C544.7 165.785 544.541 166.439 544.541 167.186C544.541 167.915 544.69 168.568 544.989 169.148C545.307 169.708 545.755 170.156 546.334 170.493C546.913 170.81 547.586 170.969 548.352 170.969ZM564.367 173.603C565.189 173.603 565.936 173.743 566.609 174.023C567.281 174.304 567.86 174.715 568.346 175.256C568.832 175.779 569.206 176.415 569.467 177.162C569.747 177.89 569.887 178.722 569.887 179.656C569.887 180.889 569.617 181.954 569.075 182.85C568.552 183.747 567.842 184.438 566.945 184.924C566.067 185.41 565.096 185.652 564.031 185.652C563.227 185.652 562.462 185.522 561.733 185.26C561.004 185.017 560.36 184.653 559.799 184.167C559.258 183.7 558.809 183.121 558.454 182.43C558.118 181.757 557.922 180.991 557.866 180.132H560.108C560.182 180.842 560.379 181.449 560.696 181.954C561.032 182.458 561.481 182.832 562.041 183.074C562.602 183.336 563.265 183.467 564.031 183.467C564.517 183.467 564.974 183.383 565.404 183.215C565.852 183.046 566.245 182.804 566.581 182.486C566.917 182.168 567.179 181.767 567.365 181.281C567.571 180.814 567.674 180.272 567.674 179.656C567.674 179.039 567.58 178.498 567.393 178.03C567.225 177.545 566.982 177.143 566.665 176.826C566.366 176.489 566.002 176.237 565.572 176.069C565.142 175.882 564.675 175.789 564.171 175.789C563.704 175.789 563.237 175.854 562.77 175.985C562.303 176.116 561.873 176.349 561.481 176.685C561.088 177.022 560.752 177.498 560.472 178.115L558.398 177.694L558.959 167.158H568.458V169.26H561.088L560.612 177.162L560.416 176.966C560.603 176.162 560.892 175.518 561.285 175.032C561.696 174.546 562.163 174.191 562.686 173.967C563.227 173.724 563.788 173.603 564.367 173.603ZM572.414 169.26V167.158H583.091V169.26L575.665 185.372H573.283L581.325 168.335L581.914 169.26H572.414ZM585.87 169.652L585.281 169.035C585.58 168.512 585.842 167.999 586.066 167.494C586.29 166.971 586.412 166.467 586.43 165.981L585.057 165.673V162.955H588.084V164.916C588.084 166.056 587.85 166.99 587.383 167.718C586.935 168.447 586.43 169.091 585.87 169.652ZM596.637 176.938L592.882 179.656L592.686 179.067H600.924V181.169H590.556V179.067C591.771 178.152 592.845 177.377 593.779 176.741C594.731 176.106 595.535 175.537 596.189 175.032C596.842 174.528 597.338 174.014 597.674 173.491C598.029 172.968 598.206 172.361 598.206 171.669C598.206 171.146 598.103 170.689 597.898 170.296C597.692 169.885 597.375 169.568 596.945 169.344C596.534 169.101 595.992 168.979 595.32 168.979C594.498 168.979 593.788 169.241 593.19 169.764C592.592 170.287 592.294 170.969 592.294 171.81H590.332C590.239 170.876 590.407 170.044 590.836 169.316C591.285 168.568 591.901 167.98 592.686 167.55C593.489 167.102 594.367 166.878 595.32 166.878C596.142 166.878 596.871 167.009 597.506 167.27C598.141 167.513 598.673 167.849 599.103 168.279C599.551 168.709 599.888 169.204 600.112 169.764C600.336 170.324 600.448 170.913 600.448 171.529C600.448 172.09 600.355 172.604 600.168 173.071C600 173.538 599.747 173.986 599.411 174.416C599.094 174.845 598.701 175.266 598.234 175.677C597.767 176.088 597.235 176.508 596.637 176.938ZM610.231 173.603C611.053 173.603 611.8 173.743 612.473 174.023C613.145 174.304 613.725 174.715 614.21 175.256C614.696 175.779 615.07 176.415 615.331 177.162C615.611 177.89 615.751 178.722 615.751 179.656C615.751 180.889 615.481 181.954 614.939 182.85C614.416 183.747 613.706 184.438 612.809 184.924C611.931 185.41 610.96 185.652 609.895 185.652C609.092 185.652 608.326 185.522 607.597 185.26C606.869 185.017 606.224 184.653 605.664 184.167C605.122 183.7 604.673 183.121 604.319 182.43C603.982 181.757 603.786 180.991 603.73 180.132H605.972C606.047 180.842 606.243 181.449 606.56 181.954C606.897 182.458 607.345 182.832 607.905 183.074C608.466 183.336 609.129 183.467 609.895 183.467C610.381 183.467 610.838 183.383 611.268 183.215C611.716 183.046 612.109 182.804 612.445 182.486C612.781 182.168 613.043 181.767 613.23 181.281C613.435 180.814 613.538 180.272 613.538 179.656C613.538 179.039 613.444 178.498 613.258 178.03C613.089 177.545 612.847 177.143 612.529 176.826C612.23 176.489 611.866 176.237 611.436 176.069C611.006 175.882 610.539 175.789 610.035 175.789C609.568 175.789 609.101 175.854 608.634 175.985C608.167 176.116 607.737 176.349 607.345 176.685C606.953 177.022 606.616 177.498 606.336 178.115L604.262 177.694L604.823 167.158H614.322V169.26H606.953L606.476 177.162L606.28 176.966C606.467 176.162 606.756 175.518 607.149 175.032C607.56 174.546 608.027 174.191 608.55 173.967C609.092 173.724 609.652 173.603 610.231 173.603ZM618.026 175.256H620.044C620.1 176.041 620.333 176.741 620.744 177.358C621.155 177.974 621.716 178.46 622.426 178.815C623.154 179.17 624.004 179.348 624.976 179.348C625.816 179.348 626.517 179.226 627.077 178.983C627.657 178.722 628.086 178.367 628.366 177.918C628.665 177.47 628.815 176.947 628.815 176.349C628.815 175.733 628.665 175.238 628.366 174.864C628.068 174.49 627.638 174.173 627.077 173.911C626.517 173.65 625.854 173.398 625.088 173.155C624.359 172.93 623.621 172.669 622.874 172.37C622.127 172.071 621.426 171.707 620.772 171.277C620.137 170.848 619.624 170.334 619.231 169.736C618.839 169.119 618.643 168.382 618.643 167.522C618.643 166.682 618.867 165.897 619.315 165.168C619.782 164.421 620.455 163.823 621.333 163.375C622.23 162.908 623.304 162.674 624.555 162.674C626.517 162.674 627.983 163.207 628.955 164.272C629.926 165.337 630.393 166.747 630.356 168.503H628.338C628.301 167.177 627.927 166.224 627.218 165.645C626.508 165.066 625.583 164.776 624.443 164.776C623.491 164.776 622.659 165 621.949 165.449C621.239 165.878 620.885 166.56 620.885 167.494C620.885 167.905 620.959 168.269 621.109 168.587C621.277 168.886 621.538 169.166 621.893 169.428C622.267 169.689 622.762 169.951 623.378 170.212C624.014 170.455 624.789 170.726 625.704 171.025C626.302 171.212 626.909 171.436 627.526 171.698C628.161 171.959 628.74 172.286 629.263 172.678C629.805 173.071 630.235 173.575 630.552 174.191C630.888 174.789 631.057 175.546 631.057 176.461C631.057 177.339 630.842 178.161 630.412 178.927C630.001 179.674 629.347 180.282 628.45 180.749C627.572 181.216 626.433 181.449 625.032 181.449C623.836 181.449 622.809 181.29 621.949 180.973C621.109 180.637 620.418 180.207 619.876 179.684C619.334 179.161 618.914 178.619 618.615 178.059C618.335 177.479 618.148 176.938 618.054 176.433C617.961 175.929 617.952 175.537 618.026 175.256ZM649.27 167.018V185.232H647.028V169.792L647.561 169.96L641.256 179.908L640.779 179.067H647.477V181.169H639.322V179.067L647.028 167.018H649.27ZM648.822 181.169V179.067H651.848V181.169H648.822ZM660.706 169.4C661.715 169.4 662.63 169.652 663.452 170.156C664.293 170.642 664.956 171.343 665.442 172.258C665.946 173.155 666.189 174.219 666.17 175.452C666.152 176.685 665.862 177.75 665.302 178.647C664.76 179.544 664.031 180.235 663.116 180.721C662.219 181.206 661.22 181.449 660.118 181.449C659.034 181.449 658.035 181.206 657.119 180.721C656.223 180.235 655.513 179.553 654.99 178.675C654.467 177.778 654.214 176.713 654.233 175.48C654.252 175.051 654.308 174.584 654.401 174.079C654.495 173.575 654.663 173.033 654.906 172.454C654.943 172.342 655.055 172.09 655.242 171.698C655.429 171.305 655.653 170.819 655.914 170.24C656.195 169.661 656.484 169.045 656.783 168.391C657.101 167.737 657.409 167.093 657.708 166.457C658.007 165.804 658.278 165.215 658.52 164.692C658.782 164.169 658.988 163.749 659.137 163.431C659.286 163.113 659.361 162.955 659.361 162.955H661.771L656.111 174.332L655.298 175.06C655.709 174.219 656.111 173.454 656.503 172.762C656.895 172.052 657.297 171.455 657.708 170.969C658.138 170.465 658.595 170.082 659.081 169.82C659.567 169.54 660.108 169.4 660.706 169.4ZM660.118 179.291C661.127 179.291 662.005 178.965 662.752 178.311C663.518 177.638 663.91 176.676 663.929 175.424C663.947 174.21 663.602 173.267 662.892 172.594C662.182 171.903 661.313 171.557 660.286 171.557C659.146 171.557 658.231 171.94 657.54 172.706C656.848 173.454 656.494 174.369 656.475 175.452C656.456 176.685 656.802 177.638 657.512 178.311C658.24 178.965 659.109 179.291 660.118 179.291ZM675.108 173.043C673.912 173.043 672.856 172.79 671.941 172.286C671.044 171.782 670.344 171.09 669.839 170.212C669.335 169.316 669.083 168.307 669.083 167.186C669.083 166.065 669.335 165.066 669.839 164.188C670.344 163.291 671.044 162.581 671.941 162.058C672.856 161.535 673.912 161.273 675.108 161.273C676.303 161.273 677.349 161.535 678.246 162.058C679.143 162.581 679.834 163.291 680.32 164.188C680.824 165.066 681.076 166.065 681.076 167.186C681.076 168.307 680.824 169.316 680.32 170.212C679.834 171.09 679.143 171.782 678.246 172.286C677.349 172.79 676.303 173.043 675.108 173.043ZM675.108 170.969C675.873 170.969 676.537 170.81 677.097 170.493C677.658 170.156 678.087 169.708 678.386 169.148C678.704 168.568 678.862 167.915 678.862 167.186C678.862 166.457 678.704 165.804 678.386 165.224C678.087 164.645 677.658 164.188 677.097 163.851C676.537 163.515 675.873 163.347 675.108 163.347C674.342 163.347 673.669 163.515 673.09 163.851C672.529 164.188 672.09 164.645 671.773 165.224C671.455 165.785 671.297 166.439 671.297 167.186C671.297 167.915 671.446 168.568 671.745 169.148C672.062 169.708 672.511 170.156 673.09 170.493C673.669 170.81 674.342 170.969 675.108 170.969ZM683.641 169.26V167.158H689.161V181.169H686.919V169.26H683.641ZM698.472 178.927C697.519 178.927 696.622 178.684 695.782 178.199C694.941 177.694 694.259 176.984 693.736 176.069C693.232 175.154 692.989 174.079 693.008 172.846C693.026 171.613 693.307 170.558 693.848 169.68C694.409 168.783 695.147 168.092 696.062 167.606C696.977 167.121 697.977 166.878 699.06 166.878C700.163 166.878 701.162 167.121 702.059 167.606C702.955 168.092 703.665 168.783 704.188 169.68C704.711 170.558 704.964 171.613 704.945 172.846C704.926 173.276 704.87 173.743 704.777 174.248C704.683 174.733 704.515 175.275 704.272 175.873C704.235 175.985 704.123 176.237 703.936 176.629C703.749 177.022 703.516 177.507 703.236 178.087C702.974 178.666 702.685 179.282 702.367 179.936C702.068 180.59 701.769 181.234 701.47 181.869C701.171 182.523 700.891 183.112 700.63 183.635C700.387 184.158 700.191 184.578 700.041 184.896C699.892 185.213 699.817 185.372 699.817 185.372H697.407L703.068 173.995L703.88 173.267C703.469 174.107 703.068 174.883 702.675 175.593C702.283 176.284 701.872 176.882 701.442 177.386C701.031 177.872 700.583 178.255 700.097 178.535C699.611 178.796 699.07 178.927 698.472 178.927ZM699.06 169.035C698.052 169.035 697.174 169.372 696.426 170.044C695.679 170.698 695.287 171.651 695.249 172.902C695.231 174.098 695.576 175.041 696.286 175.733C696.996 176.424 697.865 176.769 698.892 176.769C700.05 176.769 700.966 176.387 701.638 175.621C702.33 174.855 702.685 173.93 702.703 172.846C702.722 172.024 702.563 171.333 702.227 170.773C701.891 170.212 701.442 169.783 700.882 169.484C700.34 169.185 699.733 169.035 699.06 169.035ZM707.864 169.652L707.275 169.035C707.574 168.512 707.836 167.999 708.06 167.494C708.284 166.971 708.406 166.467 708.424 165.981L707.051 165.673V162.955H710.078V164.916C710.078 166.056 709.844 166.99 709.377 167.718C708.929 168.447 708.424 169.091 707.864 169.652ZM719.528 173.603C720.35 173.603 721.097 173.743 721.77 174.023C722.442 174.304 723.021 174.715 723.507 175.256C723.993 175.779 724.366 176.415 724.628 177.162C724.908 177.89 725.048 178.722 725.048 179.656C725.048 180.889 724.777 181.954 724.236 182.85C723.712 183.747 723.003 184.438 722.106 184.924C721.228 185.41 720.256 185.652 719.192 185.652C718.388 185.652 717.622 185.522 716.894 185.26C716.165 185.017 715.521 184.653 714.96 184.167C714.418 183.7 713.97 183.121 713.615 182.43C713.279 181.757 713.083 180.991 713.027 180.132H715.268C715.343 180.842 715.539 181.449 715.857 181.954C716.193 182.458 716.642 182.832 717.202 183.074C717.762 183.336 718.426 183.467 719.192 183.467C719.677 183.467 720.135 183.383 720.565 183.215C721.013 183.046 721.405 182.804 721.742 182.486C722.078 182.168 722.339 181.767 722.526 181.281C722.732 180.814 722.834 180.272 722.834 179.656C722.834 179.039 722.741 178.498 722.554 178.03C722.386 177.545 722.143 177.143 721.826 176.826C721.527 176.489 721.162 176.237 720.733 176.069C720.303 175.882 719.836 175.789 719.332 175.789C718.865 175.789 718.398 175.854 717.931 175.985C717.464 176.116 717.034 176.349 716.642 176.685C716.249 177.022 715.913 177.498 715.633 178.115L713.559 177.694L714.12 167.158H723.619V169.26H716.249L715.773 177.162L715.577 176.966C715.764 176.162 716.053 175.518 716.445 175.032C716.856 174.546 717.323 174.191 717.846 173.967C718.388 173.724 718.949 173.603 719.528 173.603ZM733.908 169.4C734.917 169.4 735.832 169.652 736.654 170.156C737.495 170.642 738.158 171.343 738.644 172.258C739.148 173.155 739.391 174.219 739.372 175.452C739.354 176.685 739.064 177.75 738.504 178.647C737.962 179.544 737.233 180.235 736.318 180.721C735.421 181.206 734.422 181.449 733.32 181.449C732.236 181.449 731.237 181.206 730.321 180.721C729.425 180.235 728.715 179.553 728.192 178.675C727.669 177.778 727.416 176.713 727.435 175.48C727.454 175.051 727.51 174.584 727.603 174.079C727.697 173.575 727.865 173.033 728.108 172.454C728.145 172.342 728.257 172.09 728.444 171.698C728.631 171.305 728.855 170.819 729.116 170.24C729.397 169.661 729.686 169.045 729.985 168.391C730.303 167.737 730.611 167.093 730.91 166.457C731.209 165.804 731.48 165.215 731.722 164.692C731.984 164.169 732.189 163.749 732.339 163.431C732.488 163.113 732.563 162.955 732.563 162.955H734.973L729.313 174.332L728.5 175.06C728.911 174.219 729.313 173.454 729.705 172.762C730.097 172.052 730.499 171.455 730.91 170.969C731.339 170.465 731.797 170.082 732.283 169.82C732.769 169.54 733.31 169.4 733.908 169.4ZM733.32 179.291C734.328 179.291 735.206 178.965 735.954 178.311C736.72 177.638 737.112 176.676 737.131 175.424C737.149 174.21 736.804 173.267 736.094 172.594C735.384 171.903 734.515 171.557 733.488 171.557C732.348 171.557 731.433 171.94 730.742 172.706C730.05 173.454 729.695 174.369 729.677 175.452C729.658 176.685 730.004 177.638 730.714 178.311C731.442 178.965 732.311 179.291 733.32 179.291ZM747.525 181.169L740.968 162.955H743.378L749.01 178.759H748.337L753.746 162.955H756.156L761.564 178.759H760.891L766.524 162.955H768.878L762.376 181.169H760.023L754.642 164.804H755.259L749.879 181.169H747.525Z" fill="black"/>
</svg>
