<svg width="583" height="152" viewBox="0 0 583 152" fill="none" xmlns="http://www.w3.org/2000/svg">
<path d="M66.6852 2.71039H84.9033V99.4727H51.5607L18.39 10.4445H18.0463V99.4727H0V2.71039H30.9364L66.3415 91.7386H66.6852V2.71039Z" fill="black"/>
<path d="M98.0419 99.4727L132.072 2.71039H150.29L184.836 99.4727H173.149L162.665 69.2237H120.213L109.729 99.4727H98.0419ZM141.525 7.52272L123.307 59.9428H159.571L141.525 7.52272Z" fill="black"/>
<path d="M238.977 101.879C225.228 101.879 214.744 98.0977 207.525 90.5355C200.421 82.8587 196.869 72.0882 196.869 58.2241V2.71039H215.603V58.0522C215.603 65.1562 216.749 70.656 219.04 74.5517C221.332 78.4474 224.254 81.1973 227.806 82.8014C231.358 84.4055 235.082 85.2076 238.977 85.2076C239.306 85.2076 302.629 85.2033 302.954 85.1948C306.923 85.0907 310.549 84.3502 313.832 82.9733C317.384 81.3692 320.191 78.6192 322.254 74.7235C324.431 70.8278 325.519 65.2707 325.519 58.0522V2.71039H344.081V58.2241C344.081 72.3174 340.529 83.1451 333.425 90.7074C326.6 97.9798 316.443 101.702 302.954 101.873C302.629 101.877 239.306 101.879 238.977 101.879Z" fill="black"/>
<path d="M401.439 101.191C395.939 101.191 390.554 100.561 385.283 99.3008C380.012 98.0405 375.257 96.0353 371.018 93.2854C366.778 90.4209 363.341 86.7544 360.706 82.2858C358.185 77.8172 356.924 72.432 356.924 66.1301H380.986C380.986 66.8176 381.215 67.9061 381.674 69.3956C382.246 70.7706 383.278 72.2601 384.767 73.8642C386.371 75.4683 388.606 76.8433 391.47 77.9891C394.449 79.0203 398.402 79.5359 403.329 79.5359C405.506 79.5359 407.74 79.364 410.032 79.0203C412.324 78.6765 414.271 77.9891 415.876 76.9578C417.48 75.812 418.282 74.0934 418.282 71.8018C418.282 69.3956 417.136 67.505 414.844 66.1301C412.667 64.7551 409.746 63.6666 406.079 62.8646C402.527 61.9479 398.574 61.0313 394.22 60.1147C389.981 59.198 385.741 58.0522 381.502 56.6773C377.262 55.3023 373.367 53.4691 369.815 51.1775C366.377 48.7713 363.685 45.735 361.737 42.0684C359.904 38.2873 359.159 33.5895 359.503 27.9752C360.075 19.4963 364.086 12.908 371.533 8.21021C378.981 3.39787 389.35 0.991699 402.642 0.991699C409.746 0.991699 416.391 2.25208 422.578 4.77282C428.88 7.29356 433.979 11.132 437.875 16.288C441.885 21.4441 443.89 27.9751 443.89 35.8811H420.688C420.688 32.3292 419.485 29.6938 417.079 27.9752C414.787 26.1419 411.98 24.9388 408.657 24.3659C405.449 23.793 402.527 23.5065 399.892 23.5065C395.652 23.5065 392.1 24.0222 389.236 25.0534C386.486 26.0846 385.111 28.0897 385.111 31.0688C385.111 33.7041 386.257 35.7665 388.548 37.2561C390.84 38.631 393.819 39.7768 397.486 40.6935C401.152 41.4955 405.162 42.3549 409.516 43.2715C413.985 44.0736 418.396 45.1048 422.75 46.3651C427.104 47.6255 431 49.4015 434.437 51.6931C437.989 53.8701 440.739 56.7919 442.687 60.4584C444.75 64.125 445.552 68.8227 445.093 74.5517C444.52 82.916 440.281 89.447 432.375 94.1447C424.584 98.8425 414.271 101.191 401.439 101.191Z" fill="black"/>
<path d="M501.807 101.191C496.308 101.191 490.922 100.561 485.652 99.3008C480.381 98.0405 475.626 96.0353 471.387 93.2854C467.147 90.4209 463.71 86.7544 461.074 82.2858C458.554 77.8172 457.293 72.432 457.293 66.1301H481.355C481.355 66.8176 481.584 67.9061 482.042 69.3956C482.615 70.7706 483.647 72.2601 485.136 73.8642C486.74 75.4683 488.975 76.8433 491.839 77.9891C494.818 79.0203 498.771 79.5359 503.698 79.5359C505.875 79.5359 508.109 79.364 510.401 79.0203C512.693 78.6765 514.64 77.9891 516.244 76.9578C517.849 75.812 518.651 74.0934 518.651 71.8018C518.651 69.3956 517.505 67.505 515.213 66.1301C513.036 64.7551 510.114 63.6666 506.448 62.8646C502.896 61.9479 498.943 61.0313 494.589 60.1147C490.35 59.198 486.11 58.0522 481.871 56.6773C477.631 55.3023 473.735 53.4691 470.184 51.1775C466.746 48.7713 464.054 45.735 462.106 42.0684C460.272 38.2873 459.528 33.5895 459.871 27.9752C460.444 19.4963 464.455 12.908 471.902 8.21021C479.35 3.39787 489.719 0.991699 503.011 0.991699C510.114 0.991699 516.76 2.25208 522.947 4.77282C529.249 7.29356 534.348 11.132 538.244 16.288C542.254 21.4441 544.259 27.9751 544.259 35.8811H521.057C521.057 32.3292 519.854 29.6938 517.448 27.9752C515.156 26.1419 512.349 24.9388 509.026 24.3659C505.818 23.793 502.896 23.5065 500.261 23.5065C496.021 23.5065 492.469 24.0222 489.605 25.0534C486.855 26.0846 485.48 28.0897 485.48 31.0688C485.48 33.7041 486.626 35.7665 488.917 37.2561C491.209 38.631 494.188 39.7768 497.854 40.6935C501.521 41.4955 505.531 42.3549 509.885 43.2715C514.354 44.0736 518.765 45.1048 523.119 46.3651C527.473 47.6255 531.369 49.4015 534.806 51.6931C538.358 53.8701 541.108 56.7919 543.056 60.4584C545.118 64.125 545.921 68.8227 545.462 74.5517C544.889 82.916 540.65 89.447 532.744 94.1447C524.952 98.8425 514.64 101.191 501.807 101.191Z" fill="black"/>
<path fill-rule="evenodd" clip-rule="evenodd" d="M568.11 30.7717C576.334 30.7717 583 24.1052 583 15.8817C583 7.65817 576.334 0.991699 568.11 0.991699C559.887 0.991699 553.22 7.65817 553.22 15.8817C553.22 24.1052 559.887 30.7717 568.11 30.7717ZM568.111 28.584C575.096 28.584 580.759 22.9211 580.759 15.9355C580.759 8.94995 575.096 3.28703 568.111 3.28703C561.125 3.28703 555.462 8.94995 555.462 15.9355C555.462 22.9211 561.125 28.584 568.111 28.584Z" fill="black"/>
<path d="M568.273 20.8394C565.859 20.8394 564.082 20.3268 562.939 19.3018C561.797 18.2767 561.225 16.8139 561.225 14.9133C561.225 13.002 561.797 11.4911 562.939 10.3806C564.082 9.27013 565.859 8.71489 568.273 8.71489C571.647 8.71489 573.905 9.87342 575.048 12.1905C574.087 12.5215 572.96 13.018 571.668 13.68C571.358 13.0821 570.867 12.6389 570.195 12.3506C569.533 12.0623 568.855 11.9182 568.16 11.9182C567.135 11.9182 566.372 12.1905 565.87 12.735C565.368 13.2689 565.117 13.9309 565.117 14.7211C565.117 15.5753 565.384 16.2747 565.918 16.8192C566.463 17.3531 567.29 17.6201 568.401 17.6201C569.287 17.6201 569.992 17.4759 570.515 17.1876C571.038 16.8886 571.422 16.4188 571.668 15.7782C572.544 16.248 573.665 16.7765 575.032 17.3638C574.498 18.6558 573.606 19.558 572.357 20.0706C571.107 20.5831 569.746 20.8394 568.273 20.8394Z" fill="black"/>
<path d="M12.3679 149.317C10.8508 149.317 9.35012 149.135 7.86597 148.772C6.41481 148.41 5.09557 147.849 3.90825 147.09C2.72093 146.332 1.78098 145.342 1.08837 144.122C0.395772 142.869 0.032981 141.368 0 139.62H5.09557C5.09557 139.785 5.16153 140.148 5.29345 140.709C5.42538 141.236 5.72221 141.813 6.18394 142.44C6.67866 143.067 7.43722 143.611 8.45963 144.073C9.51503 144.534 10.9332 144.765 12.7142 144.765C14.6601 144.765 16.0947 144.403 17.0182 143.677C17.9747 142.951 18.4529 142.176 18.4529 141.352C18.4529 140.428 18.1231 139.703 17.4635 139.175C16.8368 138.614 15.9793 138.169 14.8909 137.839C13.8355 137.476 12.6647 137.147 11.3785 136.85C10.1252 136.553 8.8554 136.223 7.56915 135.86C6.31587 135.465 5.16153 134.953 4.10614 134.327C3.08373 133.667 2.27569 132.826 1.68203 131.804C1.08837 130.781 0.824526 129.479 0.890488 127.895C1.05539 125.554 2.17675 123.723 4.25455 122.404C6.33236 121.085 9.08627 120.425 12.5163 120.425C14.4952 120.425 16.3256 120.788 18.0076 121.514C19.7227 122.206 21.0914 123.262 22.1138 124.68C23.1692 126.065 23.6969 127.846 23.6969 130.023H18.7992C18.7992 129 18.5683 128.176 18.1066 127.549C17.6448 126.89 17.0512 126.395 16.3256 126.065C15.633 125.702 14.8909 125.471 14.0994 125.372C13.3078 125.241 12.5988 125.175 11.9721 125.175C10.3231 125.175 8.95435 125.455 7.86597 126.016C6.81058 126.576 6.28289 127.401 6.28289 128.489C6.2499 129.413 6.56322 130.155 7.22284 130.715C7.88246 131.276 8.75646 131.721 9.84484 132.051C10.9332 132.381 12.1205 132.678 13.4068 132.942C14.693 133.205 15.9793 133.535 17.2656 133.931C18.5518 134.294 19.7227 134.789 20.778 135.415C21.8334 136.009 22.658 136.833 23.2516 137.889C23.8453 138.911 24.0926 140.247 23.9937 141.896C23.8618 144.238 22.7239 146.068 20.5802 147.387C18.4364 148.674 15.699 149.317 12.3679 149.317Z" fill="black"/>
<path d="M26.6497 125.274V120.92H48.1698V125.274H39.9081V148.772H34.862V125.274H26.6497Z" fill="black"/>
<path d="M63.894 149.465C59.9363 149.465 56.9185 148.377 54.8407 146.2C52.7959 143.99 51.7735 140.89 51.7735 136.899V120.92H57.1659V136.85C57.1659 138.895 57.4957 140.478 58.1553 141.599C58.815 142.72 59.656 143.512 60.6784 143.974C61.7008 144.435 62.7727 144.666 63.894 144.666C64.0281 144.666 90.3923 144.664 90.5238 144.659C91.6209 144.618 92.626 144.406 93.539 144.023C94.5614 143.561 95.3695 142.77 95.9631 141.649C96.5898 140.527 96.9031 138.928 96.9031 136.85V120.92H102.246V136.899C102.246 140.956 101.224 144.073 99.1788 146.249C97.2339 148.322 94.3489 149.393 90.5238 149.462C90.3921 149.464 64.0279 149.465 63.894 149.465Z" fill="black"/>
<path d="M133.004 134.822C133.004 138.482 132.278 141.335 130.827 143.38C129.409 145.392 127.397 146.794 124.792 147.585C122.186 148.377 119.119 148.772 115.59 148.772H107.922V120.92H115.59C119.119 120.92 122.186 121.448 124.792 122.503C127.397 123.526 129.409 125.059 130.827 127.104C132.278 129.149 133.004 131.721 133.004 134.822ZM112.918 144.617H117.024C119.201 144.617 121.081 144.37 122.664 143.875C124.247 143.347 125.468 142.374 126.325 140.956C127.183 139.538 127.611 137.476 127.611 134.772C127.611 131.573 126.655 129.198 124.742 127.648C122.862 126.065 120.29 125.274 117.024 125.274H112.918V144.617Z" fill="black"/>
<path d="M150.192 144.468V148.772H137.775V144.468H141.535V125.274H137.775V120.92H150.192V125.274H146.532V144.468H150.192Z" fill="black"/>
<path d="M168.246 149.465C163.761 149.465 160.331 148.162 157.956 145.557C155.581 142.918 154.394 139.373 154.394 134.92C154.394 131.985 154.905 129.446 155.928 127.302C156.95 125.125 158.484 123.443 160.528 122.256C162.606 121.035 165.179 120.425 168.246 120.425C172.797 120.425 176.244 121.745 178.586 124.383C180.927 126.989 182.098 130.501 182.098 134.92C182.098 137.79 181.57 140.329 180.515 142.539C179.46 144.716 177.91 146.414 175.865 147.635C173.82 148.855 171.28 149.465 168.246 149.465ZM168.197 144.617C171.165 144.617 173.391 143.693 174.875 141.846C176.392 140 177.151 137.691 177.151 134.92C177.151 133.041 176.821 131.375 176.161 129.924C175.502 128.44 174.512 127.285 173.193 126.461C171.874 125.603 170.208 125.175 168.197 125.175C165.294 125.175 163.085 126.065 161.567 127.846C160.05 129.627 159.292 131.985 159.292 134.92C159.292 136.734 159.605 138.383 160.232 139.868C160.891 141.319 161.881 142.473 163.2 143.331C164.519 144.188 166.185 144.617 168.197 144.617Z" fill="black"/>
<path d="M193.53 151.84C192.065 151.84 190.849 151.349 189.882 150.367C188.916 149.401 188.433 148.193 188.433 146.743C188.433 145.278 188.916 144.062 189.882 143.096C190.865 142.13 192.081 141.646 193.53 141.646C194.996 141.646 196.211 142.138 197.178 143.12C198.144 144.086 198.627 145.294 198.627 146.743C198.627 148.209 198.136 149.425 197.153 150.391C196.187 151.357 194.979 151.84 193.53 151.84Z" fill="black"/>
<path d="M218.007 149.267C215.468 149.267 213.176 148.723 211.131 147.635C209.119 146.546 207.519 144.947 206.332 142.836C205.178 140.692 204.601 138.037 204.601 134.871C204.634 131.672 205.211 129 206.332 126.857C207.486 124.713 209.086 123.113 211.131 122.058C213.176 120.969 215.534 120.425 218.205 120.425C221.437 120.425 224.142 121.299 226.319 123.047C228.528 124.795 229.93 127.302 230.524 130.567H228.199C227.704 127.928 226.55 125.933 224.736 124.581C222.922 123.196 220.745 122.503 218.205 122.503C214.709 122.503 211.939 123.558 209.894 125.669C207.882 127.78 206.876 130.814 206.876 134.772C206.876 138.862 207.866 141.962 209.845 144.073C211.856 146.15 214.577 147.189 218.007 147.189C220.811 147.189 223.12 146.497 224.933 145.112C226.747 143.726 227.885 141.748 228.347 139.175H230.771C230.144 142.374 228.743 144.864 226.566 146.645C224.389 148.393 221.536 149.267 218.007 149.267Z" fill="black"/>
<path d="M235.806 148.772V120.92H244.464C246.805 120.92 248.784 121.151 250.4 121.613C252.016 122.074 253.236 122.882 254.061 124.037C254.919 125.158 255.347 126.725 255.347 128.737C255.347 129.99 255.116 131.161 254.655 132.249C254.193 133.337 253.467 134.211 252.478 134.871C251.521 135.531 250.268 135.86 248.718 135.86C250.235 135.86 251.357 136.19 252.082 136.85C252.841 137.476 253.335 138.285 253.566 139.274C253.83 140.23 253.962 141.236 253.962 142.292C253.995 143.347 254.028 144.32 254.061 145.211C254.127 146.068 254.325 146.711 254.655 147.14C255.017 147.536 255.661 147.569 256.584 147.239V148.871C256.419 149.003 256.089 149.119 255.595 149.218C255.133 149.317 254.622 149.284 254.061 149.119C253.5 148.954 253.022 148.575 252.626 147.981C252.231 147.387 252.033 146.48 252.033 145.26C252.033 143.347 251.95 141.813 251.785 140.659C251.653 139.505 251.34 138.631 250.845 138.037C250.384 137.411 249.642 136.998 248.619 136.8C247.63 136.57 246.277 136.454 244.562 136.454C242.847 136.454 240.687 136.471 238.082 136.504V148.772H235.806ZM238.082 134.673H245.354C248.025 134.673 250.021 134.277 251.34 133.486C252.659 132.661 253.319 131.111 253.319 128.835C253.319 127.087 252.956 125.801 252.231 124.977C251.538 124.119 250.499 123.558 249.114 123.295C247.762 123.031 246.113 122.899 244.167 122.899H238.082V134.673Z" fill="black"/>
<path d="M271.056 146.794V148.772H261.063V146.794H264.971V122.948H261.063V120.92H271.056V122.948H267.197V146.794H271.056Z" fill="black"/>
<path d="M275.273 148.772L285.514 120.92H289.224L299.564 148.772H297.189L293.874 139.62H280.913L277.549 148.772H275.273ZM287.394 121.909L281.655 137.641H293.132L287.394 121.909Z" fill="black"/>
<path d="M298.403 122.948V120.92H319.181V122.948H309.93V148.772H307.704V122.948H298.403Z" fill="black"/>
<path d="M332.557 146.794V148.772H322.564V146.794H326.472V122.948H322.564V120.92H332.557V122.948H328.698V146.794H332.557Z" fill="black"/>
<path d="M357.879 120.92H360.353L350.211 148.772H346.402L336.309 120.92H338.733L348.331 147.635L357.879 120.92Z" fill="black"/>
<path d="M375.692 149.465C371.339 149.465 368.024 148.162 365.748 145.557C363.473 142.918 362.335 139.373 362.335 134.92C362.335 131.985 362.83 129.446 363.819 127.302C364.808 125.125 366.293 123.443 368.271 122.256C370.25 121.035 372.724 120.425 375.692 120.425C380.079 120.425 383.393 121.745 385.636 124.383C387.879 126.989 389 130.501 389 134.92C389 137.79 388.489 140.329 387.466 142.539C386.477 144.716 384.993 146.414 383.014 147.635C381.035 148.855 378.595 149.465 375.692 149.465ZM375.692 147.338C379.353 147.338 382.123 146.2 384.003 143.924C385.883 141.649 386.823 138.647 386.823 134.92C386.823 131.194 385.9 128.209 384.053 125.966C382.206 123.69 379.419 122.553 375.692 122.553C372.031 122.553 369.261 123.641 367.381 125.818C365.501 127.994 364.561 131.029 364.561 134.92C364.561 138.614 365.468 141.616 367.282 143.924C369.129 146.2 371.932 147.338 375.692 147.338Z" fill="black"/>
</svg>
