<svg width="960" height="960" viewBox="0 0 960 960" fill="none" xmlns="http://www.w3.org/2000/svg">
<g filter="url(#filter0_f_507_1174)">
<circle cx="480" cy="480" r="287" fill="url(#paint0_radial_507_1174)"/>
</g>
<g filter="url(#filter1_f_507_1174)">
<circle cx="480" cy="480" r="287" fill="url(#paint1_radial_507_1174)"/>
</g>
<path d="M188.137 395.426H213.855V532.022H166.786L119.961 406.344H119.475V532.022H94V395.426H137.672L187.652 521.104H188.137V395.426Z" fill="black"/>
<path d="M232.402 532.022L280.441 395.426H306.159L354.926 532.022H338.428L323.628 489.321H263.701L248.901 532.022H232.402ZM293.786 402.22L268.068 476.219H319.261L293.786 402.22Z" fill="black"/>
<path d="M431.356 535.419C411.946 535.419 397.146 530.081 386.956 519.406C376.928 508.569 371.914 493.364 371.914 473.793V395.426H398.359V473.55C398.359 483.579 399.977 491.343 403.212 496.842C406.447 502.341 410.571 506.223 415.585 508.488C420.6 510.752 425.856 511.885 431.356 511.885C431.821 511.885 521.211 511.879 521.67 511.867C527.272 511.72 532.391 510.674 537.026 508.731C542.04 506.466 546.003 502.584 548.915 497.085C551.988 491.585 553.524 483.74 553.524 473.55V395.426H579.728V473.793C579.728 493.688 574.713 508.973 564.685 519.648C555.05 529.915 540.712 535.169 521.67 535.41C521.211 535.416 431.82 535.419 431.356 535.419Z" fill="black"/>
<path d="M660.697 534.448C652.933 534.448 645.331 533.559 637.89 531.78C630.45 530 623.737 527.17 617.753 523.288C611.768 519.244 606.916 514.068 603.195 507.76C599.637 501.452 597.858 493.85 597.858 484.954H631.825C631.825 485.924 632.148 487.461 632.795 489.563C633.604 491.504 635.06 493.607 637.163 495.872C639.427 498.136 642.581 500.077 646.625 501.694C650.83 503.15 656.41 503.878 663.366 503.878C666.439 503.878 669.593 503.635 672.828 503.15C676.063 502.665 678.813 501.694 681.077 500.239C683.341 498.621 684.474 496.195 684.474 492.96C684.474 489.563 682.856 486.895 679.621 484.954C676.548 483.013 672.424 481.476 667.248 480.344C662.233 479.05 656.653 477.756 650.507 476.462C644.522 475.168 638.537 473.55 632.553 471.609C626.568 469.668 621.069 467.08 616.054 463.846C611.202 460.449 607.401 456.162 604.651 450.987C602.063 445.649 601.012 439.017 601.497 431.092C602.306 419.122 607.967 409.822 618.481 403.19C628.994 396.397 643.632 393 662.395 393C672.424 393 681.805 394.779 690.539 398.338C699.435 401.896 706.633 407.315 712.133 414.593C717.794 421.872 720.624 431.092 720.624 442.252H687.87C687.87 437.238 686.172 433.518 682.775 431.092C679.54 428.504 675.578 426.805 670.887 425.997C666.358 425.188 662.233 424.783 658.513 424.783C652.529 424.783 647.514 425.511 643.471 426.967C639.589 428.423 637.648 431.253 637.648 435.459C637.648 439.179 639.265 442.09 642.5 444.193C645.735 446.134 649.941 447.752 655.117 449.046C660.292 450.178 665.954 451.391 672.1 452.685C678.408 453.817 684.635 455.273 690.782 457.052C696.928 458.831 702.428 461.338 707.28 464.573C712.294 467.647 716.176 471.771 718.926 476.947C721.837 482.123 722.97 488.755 722.323 496.842C721.514 508.65 715.529 517.869 704.369 524.501C693.37 531.133 678.813 534.448 660.697 534.448Z" fill="black"/>
<path d="M802.384 534.448C794.62 534.448 787.018 533.559 779.578 531.78C772.137 530 765.425 527.17 759.44 523.288C753.455 519.244 748.603 514.068 744.883 507.76C741.324 501.452 739.545 493.85 739.545 484.954H773.512C773.512 485.924 773.836 487.461 774.483 489.563C775.291 491.504 776.747 493.607 778.85 495.872C781.114 498.136 784.268 500.077 788.312 501.694C792.517 503.15 798.098 503.878 805.053 503.878C808.126 503.878 811.28 503.635 814.515 503.15C817.75 502.665 820.5 501.694 822.764 500.239C825.029 498.621 826.161 496.195 826.161 492.96C826.161 489.563 824.543 486.895 821.309 484.954C818.235 483.013 814.111 481.476 808.935 480.344C803.921 479.05 798.34 477.756 792.194 476.462C786.209 475.168 780.225 473.55 774.24 471.609C768.255 469.668 762.756 467.08 757.742 463.846C752.889 460.449 749.088 456.162 746.338 450.987C743.75 445.649 742.699 439.017 743.184 431.092C743.993 419.122 749.654 409.822 760.168 403.19C770.681 396.397 785.32 393 804.082 393C814.111 393 823.492 394.779 832.227 398.338C841.123 401.896 848.32 407.315 853.82 414.593C859.481 421.872 862.312 431.092 862.312 442.252H829.558C829.558 437.238 827.859 433.518 824.463 431.092C821.228 428.504 817.265 426.805 812.574 425.997C808.045 425.188 803.921 424.783 800.2 424.783C794.216 424.783 789.202 425.511 785.158 426.967C781.276 428.423 779.335 431.253 779.335 435.459C779.335 439.179 780.952 442.09 784.187 444.193C787.422 446.134 791.628 447.752 796.804 449.046C801.98 450.178 807.641 451.391 813.787 452.685C820.095 453.817 826.323 455.273 832.469 457.052C838.616 458.831 844.115 461.338 848.967 464.573C853.982 467.647 857.863 471.771 860.613 476.947C863.525 482.123 864.657 488.755 864.01 496.842C863.201 508.65 857.216 517.869 846.056 524.501C835.057 531.133 820.5 534.448 802.384 534.448Z" fill="black"/>
<path fill-rule="evenodd" clip-rule="evenodd" d="M895.981 435.04C907.59 435.04 917.001 425.629 917.001 414.02C917.001 402.411 907.59 393 895.981 393C884.372 393 874.961 402.411 874.961 414.02C874.961 425.629 884.372 435.04 895.981 435.04ZM895.982 431.951C905.843 431.951 913.837 423.957 913.837 414.096C913.837 404.234 905.843 396.24 895.982 396.24C886.121 396.24 878.126 404.234 878.126 414.096C878.126 423.957 886.121 431.951 895.982 431.951Z" fill="black"/>
<path d="M896.21 421.609C892.804 421.609 890.294 420.885 888.681 419.438C887.068 417.991 886.262 415.926 886.262 413.243C886.262 410.545 887.068 408.412 888.681 406.844C890.294 405.277 892.804 404.493 896.21 404.493C900.973 404.493 904.161 406.128 905.774 409.399C904.418 409.867 902.827 410.568 901.004 411.502C900.566 410.658 899.873 410.032 898.923 409.625C897.989 409.218 897.032 409.015 896.052 409.015C894.605 409.015 893.527 409.399 892.819 410.168C892.11 410.922 891.756 411.856 891.756 412.972C891.756 414.178 892.133 415.165 892.887 415.934C893.655 416.687 894.824 417.064 896.391 417.064C897.642 417.064 898.637 416.861 899.376 416.454C900.114 416.032 900.657 415.368 901.004 414.464C902.24 415.127 903.822 415.873 905.752 416.702C904.998 418.526 903.739 419.8 901.976 420.523C900.212 421.247 898.29 421.609 896.21 421.609Z" fill="black"/>
<path d="M616.286 569.938L612.531 572.656L612.335 572.067H620.573V574.169H610.205V572.067C611.419 571.152 612.493 570.377 613.427 569.741C614.38 569.106 615.184 568.537 615.837 568.032C616.491 567.528 616.986 567.014 617.323 566.491C617.677 565.968 617.855 565.361 617.855 564.669C617.855 564.146 617.752 563.689 617.547 563.296C617.341 562.885 617.024 562.568 616.594 562.344C616.183 562.101 615.641 561.979 614.969 561.979C614.147 561.979 613.437 562.241 612.839 562.764C612.241 563.287 611.942 563.969 611.942 564.81H609.981C609.887 563.876 610.055 563.044 610.485 562.316C610.934 561.568 611.55 560.98 612.335 560.55C613.138 560.102 614.016 559.878 614.969 559.878C615.791 559.878 616.519 560.009 617.154 560.27C617.79 560.513 618.322 560.849 618.752 561.279C619.2 561.709 619.536 562.204 619.76 562.764C619.985 563.324 620.097 563.913 620.097 564.529C620.097 565.09 620.003 565.604 619.816 566.071C619.648 566.538 619.396 566.986 619.06 567.416C618.742 567.845 618.35 568.266 617.883 568.677C617.416 569.088 616.884 569.508 616.286 569.938ZM628.451 568.845L628.479 568.705C629.189 568.761 629.843 568.882 630.44 569.069C631.038 569.256 631.561 569.536 632.01 569.91C632.458 570.265 632.804 570.732 633.046 571.311C633.289 571.89 633.411 572.59 633.411 573.412C633.411 574.365 633.186 575.234 632.738 576.018C632.29 576.822 631.655 577.457 630.833 577.924C630.029 578.41 629.086 578.652 628.002 578.652C626.994 578.652 626.069 578.41 625.228 577.924C624.406 577.457 623.762 576.822 623.295 576.018C622.846 575.234 622.669 574.365 622.762 573.412H624.724C624.724 574.01 624.855 574.543 625.116 575.01C625.378 575.495 625.751 575.878 626.237 576.159C626.723 576.439 627.311 576.579 628.002 576.579C628.974 576.579 629.74 576.28 630.3 575.682C630.879 575.084 631.169 574.29 631.169 573.3C631.169 572.31 630.851 571.507 630.216 570.89C629.6 570.274 628.75 569.966 627.666 569.966H626.069V567.892H627.666C628.376 567.892 628.974 567.771 629.46 567.528C629.945 567.266 630.31 566.902 630.552 566.435C630.795 565.968 630.917 565.435 630.917 564.838C630.917 563.997 630.664 563.315 630.16 562.792C629.674 562.25 628.936 561.979 627.946 561.979C627.124 561.979 626.424 562.25 625.845 562.792C625.266 563.315 624.976 563.997 624.976 564.838H623.014C622.94 564.146 623.014 563.502 623.239 562.904C623.482 562.306 623.836 561.783 624.304 561.335C624.771 560.868 625.312 560.513 625.929 560.27C626.564 560.009 627.236 559.878 627.946 559.878C628.993 559.878 629.908 560.102 630.693 560.55C631.477 560.98 632.084 561.568 632.514 562.316C632.944 563.063 633.158 563.904 633.158 564.838C633.158 565.604 633.037 566.248 632.794 566.771C632.57 567.276 632.243 567.677 631.813 567.976C631.402 568.275 630.907 568.49 630.328 568.621C629.749 568.751 629.123 568.826 628.451 568.845ZM642.352 566.043C641.156 566.043 640.101 565.79 639.185 565.286C638.289 564.782 637.588 564.09 637.084 563.212C636.579 562.316 636.327 561.307 636.327 560.186C636.327 559.065 636.579 558.066 637.084 557.188C637.588 556.291 638.289 555.581 639.185 555.058C640.101 554.535 641.156 554.273 642.352 554.273C643.547 554.273 644.594 554.535 645.49 555.058C646.387 555.581 647.078 556.291 647.564 557.188C648.068 558.066 648.321 559.065 648.321 560.186C648.321 561.307 648.068 562.316 647.564 563.212C647.078 564.09 646.387 564.782 645.49 565.286C644.594 565.79 643.547 566.043 642.352 566.043ZM642.352 563.969C643.118 563.969 643.781 563.81 644.341 563.493C644.902 563.156 645.332 562.708 645.63 562.148C645.948 561.568 646.107 560.915 646.107 560.186C646.107 559.457 645.948 558.804 645.63 558.224C645.332 557.645 644.902 557.188 644.341 556.851C643.781 556.515 643.118 556.347 642.352 556.347C641.586 556.347 640.913 556.515 640.334 556.851C639.774 557.188 639.335 557.645 639.017 558.224C638.7 558.785 638.541 559.439 638.541 560.186C638.541 560.915 638.69 561.568 638.989 562.148C639.307 562.708 639.755 563.156 640.334 563.493C640.913 563.81 641.586 563.969 642.352 563.969ZM658.367 566.603C659.189 566.603 659.936 566.743 660.609 567.023C661.281 567.304 661.86 567.715 662.346 568.256C662.832 568.779 663.206 569.415 663.467 570.162C663.747 570.89 663.887 571.722 663.887 572.656C663.887 573.889 663.617 574.954 663.075 575.85C662.552 576.747 661.842 577.438 660.945 577.924C660.067 578.41 659.096 578.652 658.031 578.652C657.227 578.652 656.462 578.522 655.733 578.26C655.004 578.017 654.36 577.653 653.799 577.167C653.258 576.7 652.809 576.121 652.454 575.43C652.118 574.757 651.922 573.991 651.866 573.132H654.108C654.182 573.842 654.379 574.449 654.696 574.954C655.032 575.458 655.481 575.832 656.041 576.074C656.602 576.336 657.265 576.467 658.031 576.467C658.517 576.467 658.974 576.383 659.404 576.215C659.852 576.046 660.245 575.804 660.581 575.486C660.917 575.168 661.179 574.767 661.365 574.281C661.571 573.814 661.674 573.272 661.674 572.656C661.674 572.039 661.58 571.498 661.393 571.03C661.225 570.545 660.982 570.143 660.665 569.826C660.366 569.489 660.002 569.237 659.572 569.069C659.142 568.882 658.675 568.789 658.171 568.789C657.704 568.789 657.237 568.854 656.77 568.985C656.303 569.116 655.873 569.349 655.481 569.685C655.088 570.022 654.752 570.498 654.472 571.115L652.398 570.694L652.959 560.158H662.458V562.26H655.088L654.612 570.162L654.416 569.966C654.603 569.162 654.892 568.518 655.285 568.032C655.696 567.546 656.163 567.191 656.686 566.967C657.227 566.724 657.788 566.603 658.367 566.603ZM666.414 562.26V560.158H677.091V562.26L669.665 578.372H667.283L675.325 561.335L675.914 562.26H666.414ZM679.87 562.652L679.281 562.035C679.58 561.512 679.842 560.999 680.066 560.494C680.29 559.971 680.412 559.467 680.43 558.981L679.057 558.673V555.955H682.084V557.916C682.084 559.056 681.85 559.99 681.383 560.718C680.935 561.447 680.43 562.091 679.87 562.652ZM690.637 569.938L686.882 572.656L686.686 572.067H694.924V574.169H684.556V572.067C685.771 571.152 686.845 570.377 687.779 569.741C688.731 569.106 689.535 568.537 690.189 568.032C690.842 567.528 691.338 567.014 691.674 566.491C692.029 565.968 692.206 565.361 692.206 564.669C692.206 564.146 692.103 563.689 691.898 563.296C691.692 562.885 691.375 562.568 690.945 562.344C690.534 562.101 689.992 561.979 689.32 561.979C688.498 561.979 687.788 562.241 687.19 562.764C686.592 563.287 686.294 563.969 686.294 564.81H684.332C684.239 563.876 684.407 563.044 684.836 562.316C685.285 561.568 685.901 560.98 686.686 560.55C687.489 560.102 688.367 559.878 689.32 559.878C690.142 559.878 690.871 560.009 691.506 560.27C692.141 560.513 692.673 560.849 693.103 561.279C693.551 561.709 693.888 562.204 694.112 562.764C694.336 563.324 694.448 563.913 694.448 564.529C694.448 565.09 694.355 565.604 694.168 566.071C694 566.538 693.747 566.986 693.411 567.416C693.094 567.845 692.701 568.266 692.234 568.677C691.767 569.088 691.235 569.508 690.637 569.938ZM704.231 566.603C705.053 566.603 705.8 566.743 706.473 567.023C707.145 567.304 707.725 567.715 708.21 568.256C708.696 568.779 709.07 569.415 709.331 570.162C709.611 570.89 709.751 571.722 709.751 572.656C709.751 573.889 709.481 574.954 708.939 575.85C708.416 576.747 707.706 577.438 706.809 577.924C705.931 578.41 704.96 578.652 703.895 578.652C703.092 578.652 702.326 578.522 701.597 578.26C700.869 578.017 700.224 577.653 699.664 577.167C699.122 576.7 698.673 576.121 698.319 575.43C697.982 574.757 697.786 573.991 697.73 573.132H699.972C700.047 573.842 700.243 574.449 700.56 574.954C700.897 575.458 701.345 575.832 701.905 576.074C702.466 576.336 703.129 576.467 703.895 576.467C704.381 576.467 704.838 576.383 705.268 576.215C705.716 576.046 706.109 575.804 706.445 575.486C706.781 575.168 707.043 574.767 707.23 574.281C707.435 573.814 707.538 573.272 707.538 572.656C707.538 572.039 707.444 571.498 707.258 571.03C707.089 570.545 706.847 570.143 706.529 569.826C706.23 569.489 705.866 569.237 705.436 569.069C705.006 568.882 704.539 568.789 704.035 568.789C703.568 568.789 703.101 568.854 702.634 568.985C702.167 569.116 701.737 569.349 701.345 569.685C700.953 570.022 700.616 570.498 700.336 571.115L698.262 570.694L698.823 560.158H708.322V562.26H700.953L700.476 570.162L700.28 569.966C700.467 569.162 700.756 568.518 701.149 568.032C701.56 567.546 702.027 567.191 702.55 566.967C703.092 566.724 703.652 566.603 704.231 566.603ZM712.026 568.256H714.044C714.1 569.041 714.333 569.741 714.744 570.358C715.155 570.974 715.716 571.46 716.426 571.815C717.154 572.17 718.004 572.348 718.976 572.348C719.816 572.348 720.517 572.226 721.077 571.983C721.657 571.722 722.086 571.367 722.366 570.918C722.665 570.47 722.815 569.947 722.815 569.349C722.815 568.733 722.665 568.238 722.366 567.864C722.068 567.49 721.638 567.173 721.077 566.911C720.517 566.65 719.854 566.398 719.088 566.155C718.359 565.93 717.621 565.669 716.874 565.37C716.127 565.071 715.426 564.707 714.772 564.277C714.137 563.848 713.624 563.334 713.231 562.736C712.839 562.119 712.643 561.382 712.643 560.522C712.643 559.682 712.867 558.897 713.315 558.168C713.782 557.421 714.455 556.823 715.333 556.375C716.23 555.908 717.304 555.674 718.555 555.674C720.517 555.674 721.983 556.207 722.955 557.272C723.926 558.337 724.393 559.747 724.356 561.503H722.338C722.301 560.177 721.927 559.224 721.218 558.645C720.508 558.066 719.583 557.776 718.443 557.776C717.491 557.776 716.659 558 715.949 558.449C715.239 558.878 714.885 559.56 714.885 560.494C714.885 560.905 714.959 561.269 715.109 561.587C715.277 561.886 715.538 562.166 715.893 562.428C716.267 562.689 716.762 562.951 717.378 563.212C718.014 563.455 718.789 563.726 719.704 564.025C720.302 564.212 720.909 564.436 721.526 564.698C722.161 564.959 722.74 565.286 723.263 565.678C723.805 566.071 724.235 566.575 724.552 567.191C724.888 567.789 725.057 568.546 725.057 569.461C725.057 570.339 724.842 571.161 724.412 571.927C724.001 572.674 723.347 573.282 722.45 573.749C721.572 574.216 720.433 574.449 719.032 574.449C717.836 574.449 716.809 574.29 715.949 573.973C715.109 573.637 714.418 573.207 713.876 572.684C713.334 572.161 712.914 571.619 712.615 571.059C712.335 570.479 712.148 569.938 712.054 569.433C711.961 568.929 711.952 568.537 712.026 568.256ZM743.27 560.018V578.232H741.028V562.792L741.561 562.96L735.256 572.908L734.779 572.067H741.477V574.169H733.322V572.067L741.028 560.018H743.27ZM742.822 574.169V572.067H745.848V574.169H742.822ZM754.706 562.4C755.715 562.4 756.63 562.652 757.452 563.156C758.293 563.642 758.956 564.343 759.442 565.258C759.946 566.155 760.189 567.219 760.17 568.452C760.152 569.685 759.862 570.75 759.302 571.647C758.76 572.544 758.031 573.235 757.116 573.721C756.219 574.206 755.22 574.449 754.118 574.449C753.034 574.449 752.035 574.206 751.119 573.721C750.223 573.235 749.513 572.553 748.99 571.675C748.467 570.778 748.214 569.713 748.233 568.48C748.252 568.051 748.308 567.584 748.401 567.079C748.495 566.575 748.663 566.033 748.906 565.454C748.943 565.342 749.055 565.09 749.242 564.698C749.429 564.305 749.653 563.819 749.914 563.24C750.195 562.661 750.484 562.045 750.783 561.391C751.101 560.737 751.409 560.093 751.708 559.457C752.007 558.804 752.278 558.215 752.52 557.692C752.782 557.169 752.988 556.749 753.137 556.431C753.286 556.113 753.361 555.955 753.361 555.955H755.771L750.111 567.332L749.298 568.06C749.709 567.219 750.111 566.454 750.503 565.762C750.895 565.052 751.297 564.455 751.708 563.969C752.138 563.465 752.595 563.082 753.081 562.82C753.567 562.54 754.108 562.4 754.706 562.4ZM754.118 572.291C755.127 572.291 756.005 571.965 756.752 571.311C757.518 570.638 757.91 569.676 757.929 568.424C757.947 567.21 757.602 566.267 756.892 565.594C756.182 564.903 755.313 564.557 754.286 564.557C753.146 564.557 752.231 564.94 751.54 565.706C750.848 566.454 750.494 567.369 750.475 568.452C750.456 569.685 750.802 570.638 751.512 571.311C752.24 571.965 753.109 572.291 754.118 572.291ZM769.108 566.043C767.912 566.043 766.856 565.79 765.941 565.286C765.044 564.782 764.344 564.09 763.839 563.212C763.335 562.316 763.083 561.307 763.083 560.186C763.083 559.065 763.335 558.066 763.839 557.188C764.344 556.291 765.044 555.581 765.941 555.058C766.856 554.535 767.912 554.273 769.108 554.273C770.303 554.273 771.349 554.535 772.246 555.058C773.143 555.581 773.834 556.291 774.32 557.188C774.824 558.066 775.076 559.065 775.076 560.186C775.076 561.307 774.824 562.316 774.32 563.212C773.834 564.09 773.143 564.782 772.246 565.286C771.349 565.79 770.303 566.043 769.108 566.043ZM769.108 563.969C769.873 563.969 770.537 563.81 771.097 563.493C771.658 563.156 772.087 562.708 772.386 562.148C772.704 561.568 772.862 560.915 772.862 560.186C772.862 559.457 772.704 558.804 772.386 558.224C772.087 557.645 771.658 557.188 771.097 556.851C770.537 556.515 769.873 556.347 769.108 556.347C768.342 556.347 767.669 556.515 767.09 556.851C766.529 557.188 766.09 557.645 765.773 558.224C765.455 558.785 765.297 559.439 765.297 560.186C765.297 560.915 765.446 561.568 765.745 562.148C766.062 562.708 766.511 563.156 767.09 563.493C767.669 563.81 768.342 563.969 769.108 563.969ZM777.641 562.26V560.158H783.161V574.169H780.919V562.26H777.641ZM792.472 571.927C791.519 571.927 790.622 571.684 789.782 571.199C788.941 570.694 788.259 569.984 787.736 569.069C787.232 568.154 786.989 567.079 787.008 565.846C787.026 564.613 787.307 563.558 787.848 562.68C788.409 561.783 789.147 561.092 790.062 560.606C790.977 560.121 791.977 559.878 793.06 559.878C794.163 559.878 795.162 560.121 796.059 560.606C796.955 561.092 797.665 561.783 798.188 562.68C798.711 563.558 798.964 564.613 798.945 565.846C798.926 566.276 798.87 566.743 798.777 567.248C798.683 567.733 798.515 568.275 798.272 568.873C798.235 568.985 798.123 569.237 797.936 569.629C797.749 570.022 797.516 570.507 797.236 571.087C796.974 571.666 796.685 572.282 796.367 572.936C796.068 573.59 795.769 574.234 795.47 574.869C795.171 575.523 794.891 576.112 794.63 576.635C794.387 577.158 794.191 577.578 794.041 577.896C793.892 578.213 793.817 578.372 793.817 578.372H791.407L797.068 566.995L797.88 566.267C797.469 567.107 797.068 567.883 796.675 568.593C796.283 569.284 795.872 569.882 795.442 570.386C795.031 570.872 794.583 571.255 794.097 571.535C793.611 571.796 793.07 571.927 792.472 571.927ZM793.06 562.035C792.052 562.035 791.174 562.372 790.426 563.044C789.679 563.698 789.287 564.651 789.249 565.902C789.231 567.098 789.576 568.041 790.286 568.733C790.996 569.424 791.865 569.769 792.892 569.769C794.05 569.769 794.966 569.387 795.638 568.621C796.33 567.855 796.685 566.93 796.703 565.846C796.722 565.024 796.563 564.333 796.227 563.773C795.891 563.212 795.442 562.783 794.882 562.484C794.34 562.185 793.733 562.035 793.06 562.035ZM801.864 562.652L801.275 562.035C801.574 561.512 801.836 560.999 802.06 560.494C802.284 559.971 802.406 559.467 802.424 558.981L801.051 558.673V555.955H804.078V557.916C804.078 559.056 803.844 559.99 803.377 560.718C802.929 561.447 802.424 562.091 801.864 562.652ZM813.528 566.603C814.35 566.603 815.097 566.743 815.77 567.023C816.442 567.304 817.021 567.715 817.507 568.256C817.993 568.779 818.366 569.415 818.628 570.162C818.908 570.89 819.048 571.722 819.048 572.656C819.048 573.889 818.777 574.954 818.236 575.85C817.712 576.747 817.003 577.438 816.106 577.924C815.228 578.41 814.256 578.652 813.192 578.652C812.388 578.652 811.622 578.522 810.894 578.26C810.165 578.017 809.521 577.653 808.96 577.167C808.418 576.7 807.97 576.121 807.615 575.43C807.279 574.757 807.083 573.991 807.027 573.132H809.268C809.343 573.842 809.539 574.449 809.857 574.954C810.193 575.458 810.642 575.832 811.202 576.074C811.762 576.336 812.426 576.467 813.192 576.467C813.677 576.467 814.135 576.383 814.565 576.215C815.013 576.046 815.405 575.804 815.742 575.486C816.078 575.168 816.339 574.767 816.526 574.281C816.732 573.814 816.834 573.272 816.834 572.656C816.834 572.039 816.741 571.498 816.554 571.03C816.386 570.545 816.143 570.143 815.826 569.826C815.527 569.489 815.162 569.237 814.733 569.069C814.303 568.882 813.836 568.789 813.332 568.789C812.865 568.789 812.398 568.854 811.931 568.985C811.464 569.116 811.034 569.349 810.642 569.685C810.249 570.022 809.913 570.498 809.633 571.115L807.559 570.694L808.12 560.158H817.619V562.26H810.249L809.773 570.162L809.577 569.966C809.764 569.162 810.053 568.518 810.445 568.032C810.856 567.546 811.323 567.191 811.846 566.967C812.388 566.724 812.949 566.603 813.528 566.603ZM827.908 562.4C828.917 562.4 829.832 562.652 830.654 563.156C831.495 563.642 832.158 564.343 832.644 565.258C833.148 566.155 833.391 567.219 833.372 568.452C833.354 569.685 833.064 570.75 832.504 571.647C831.962 572.544 831.233 573.235 830.318 573.721C829.421 574.206 828.422 574.449 827.32 574.449C826.236 574.449 825.237 574.206 824.321 573.721C823.425 573.235 822.715 572.553 822.192 571.675C821.669 570.778 821.416 569.713 821.435 568.48C821.454 568.051 821.51 567.584 821.603 567.079C821.697 566.575 821.865 566.033 822.108 565.454C822.145 565.342 822.257 565.09 822.444 564.698C822.631 564.305 822.855 563.819 823.116 563.24C823.397 562.661 823.686 562.045 823.985 561.391C824.303 560.737 824.611 560.093 824.91 559.457C825.209 558.804 825.48 558.215 825.722 557.692C825.984 557.169 826.189 556.749 826.339 556.431C826.488 556.113 826.563 555.955 826.563 555.955H828.973L823.313 567.332L822.5 568.06C822.911 567.219 823.313 566.454 823.705 565.762C824.097 565.052 824.499 564.455 824.91 563.969C825.339 563.465 825.797 563.082 826.283 562.82C826.769 562.54 827.31 562.4 827.908 562.4ZM827.32 572.291C828.328 572.291 829.206 571.965 829.954 571.311C830.72 570.638 831.112 569.676 831.131 568.424C831.149 567.21 830.804 566.267 830.094 565.594C829.384 564.903 828.515 564.557 827.488 564.557C826.348 564.557 825.433 564.94 824.742 565.706C824.05 566.454 823.695 567.369 823.677 568.452C823.658 569.685 824.004 570.638 824.714 571.311C825.442 571.965 826.311 572.291 827.32 572.291ZM841.525 574.169L834.968 555.955H837.378L843.01 571.759H842.337L847.746 555.955H850.156L855.564 571.759H854.891L860.524 555.955H862.878L856.376 574.169H854.023L848.642 557.804H849.259L843.879 574.169H841.525Z" fill="black"/>
<defs>
<filter id="filter0_f_507_1174" x="0" y="0" width="960" height="960" filterUnits="userSpaceOnUse" color-interpolation-filters="sRGB">
<feFlood flood-opacity="0" result="BackgroundImageFix"/>
<feBlend mode="normal" in="SourceGraphic" in2="BackgroundImageFix" result="shape"/>
<feGaussianBlur stdDeviation="96.5" result="effect1_foregroundBlur_507_1174"/>
</filter>
<filter id="filter1_f_507_1174" x="0" y="0" width="960" height="960" filterUnits="userSpaceOnUse" color-interpolation-filters="sRGB">
<feFlood flood-opacity="0" result="BackgroundImageFix"/>
<feBlend mode="normal" in="SourceGraphic" in2="BackgroundImageFix" result="shape"/>
<feGaussianBlur stdDeviation="96.5" result="effect1_foregroundBlur_507_1174"/>
</filter>
<radialGradient id="paint0_radial_507_1174" cx="0" cy="0" r="1" gradientUnits="userSpaceOnUse" gradientTransform="translate(480 480) rotate(90) scale(287)">
<stop stop-color="#0500FF"/>
<stop offset="0.348958" stop-color="#0500FF"/>
<stop offset="1" stop-color="#4C0494"/>
</radialGradient>
<radialGradient id="paint1_radial_507_1174" cx="0" cy="0" r="1" gradientUnits="userSpaceOnUse" gradientTransform="translate(480 480) rotate(90) scale(287)">
<stop stop-color="#0500FF"/>
<stop offset="0.510417" stop-color="#0500FF"/>
<stop offset="0.791667" stop-color="#F461CB"/>
<stop offset="1" stop-color="#AD00FF"/>
</radialGradient>
</defs>
</svg>
