<svg width="1920" height="1119" viewBox="0 0 1920 1119" fill="none" xmlns="http://www.w3.org/2000/svg">
<g filter="url(#filter0_f_648_1189)">
<circle cx="934" cy="559" r="287" fill="url(#paint0_radial_648_1189)"/>
</g>
<g filter="url(#filter1_f_648_1189)">
<circle cx="934" cy="559" r="287" fill="url(#paint1_radial_648_1189)"/>
</g>
<path d="M642.137 474.426H667.855V611.022H620.786L573.961 485.344H573.475V611.022H548V474.426H591.672L641.652 600.104H642.137V474.426Z" fill="black"/>
<path d="M686.402 611.022L734.441 474.426H760.159L808.926 611.022H792.428L777.628 568.321H717.701L702.901 611.022H686.402ZM747.786 481.22L722.068 555.219H773.261L747.786 481.22Z" fill="black"/>
<path d="M885.356 614.419C865.946 614.419 851.146 609.081 840.956 598.406C830.928 587.569 825.914 572.364 825.914 552.793V474.426H852.359V552.55C852.359 562.579 853.977 570.343 857.212 575.842C860.447 581.341 864.571 585.223 869.585 587.488C874.6 589.752 879.856 590.885 885.356 590.885C885.821 590.885 975.211 590.879 975.67 590.867C981.272 590.72 986.391 589.674 991.026 587.731C996.04 585.466 1000 581.584 1002.91 576.085C1005.99 570.585 1007.52 562.74 1007.52 552.55V474.426H1033.73V552.793C1033.73 572.688 1028.71 587.973 1018.68 598.648C1009.05 608.915 994.712 614.169 975.67 614.41C975.211 614.416 885.82 614.419 885.356 614.419Z" fill="black"/>
<path d="M1114.7 613.448C1106.93 613.448 1099.33 612.559 1091.89 610.78C1084.45 609 1077.74 606.17 1071.75 602.288C1065.77 598.244 1060.92 593.068 1057.2 586.76C1053.64 580.452 1051.86 572.85 1051.86 563.954H1085.82C1085.82 564.924 1086.15 566.461 1086.8 568.563C1087.6 570.504 1089.06 572.607 1091.16 574.872C1093.43 577.136 1096.58 579.077 1100.62 580.694C1104.83 582.15 1110.41 582.878 1117.37 582.878C1120.44 582.878 1123.59 582.635 1126.83 582.15C1130.06 581.665 1132.81 580.694 1135.08 579.239C1137.34 577.621 1138.47 575.195 1138.47 571.96C1138.47 568.563 1136.86 565.895 1133.62 563.954C1130.55 562.013 1126.42 560.476 1121.25 559.344C1116.23 558.05 1110.65 556.756 1104.51 555.462C1098.52 554.168 1092.54 552.55 1086.55 550.609C1080.57 548.668 1075.07 546.08 1070.05 542.846C1065.2 539.449 1061.4 535.162 1058.65 529.987C1056.06 524.649 1055.01 518.017 1055.5 510.092C1056.31 498.122 1061.97 488.822 1072.48 482.19C1082.99 475.397 1097.63 472 1116.4 472C1126.42 472 1135.8 473.779 1144.54 477.338C1153.44 480.896 1160.63 486.315 1166.13 493.593C1171.79 500.872 1174.62 510.092 1174.62 521.252H1141.87C1141.87 516.238 1140.17 512.518 1136.78 510.092C1133.54 507.504 1129.58 505.805 1124.89 504.997C1120.36 504.188 1116.23 503.783 1112.51 503.783C1106.53 503.783 1101.51 504.511 1097.47 505.967C1093.59 507.423 1091.65 510.253 1091.65 514.459C1091.65 518.179 1093.27 521.09 1096.5 523.193C1099.74 525.134 1103.94 526.752 1109.12 528.046C1114.29 529.178 1119.95 530.391 1126.1 531.685C1132.41 532.817 1138.64 534.273 1144.78 536.052C1150.93 537.831 1156.43 540.338 1161.28 543.573C1166.29 546.647 1170.18 550.771 1172.93 555.947C1175.84 561.123 1176.97 567.755 1176.32 575.842C1175.51 587.65 1169.53 596.869 1158.37 603.501C1147.37 610.133 1132.81 613.448 1114.7 613.448Z" fill="black"/>
<path d="M1256.38 613.448C1248.62 613.448 1241.02 612.559 1233.58 610.78C1226.14 609 1219.42 606.17 1213.44 602.288C1207.46 598.244 1202.6 593.068 1198.88 586.76C1195.32 580.452 1193.55 572.85 1193.55 563.954H1227.51C1227.51 564.924 1227.84 566.461 1228.48 568.563C1229.29 570.504 1230.75 572.607 1232.85 574.872C1235.11 577.136 1238.27 579.077 1242.31 580.694C1246.52 582.15 1252.1 582.878 1259.05 582.878C1262.13 582.878 1265.28 582.635 1268.52 582.15C1271.75 581.665 1274.5 580.694 1276.76 579.239C1279.03 577.621 1280.16 575.195 1280.16 571.96C1280.16 568.563 1278.54 565.895 1275.31 563.954C1272.24 562.013 1268.11 560.476 1262.93 559.344C1257.92 558.05 1252.34 556.756 1246.19 555.462C1240.21 554.168 1234.22 552.55 1228.24 550.609C1222.26 548.668 1216.76 546.08 1211.74 542.846C1206.89 539.449 1203.09 535.162 1200.34 529.987C1197.75 524.649 1196.7 518.017 1197.18 510.092C1197.99 498.122 1203.65 488.822 1214.17 482.19C1224.68 475.397 1239.32 472 1258.08 472C1268.11 472 1277.49 473.779 1286.23 477.338C1295.12 480.896 1302.32 486.315 1307.82 493.593C1313.48 500.872 1316.31 510.092 1316.31 521.252H1283.56C1283.56 516.238 1281.86 512.518 1278.46 510.092C1275.23 507.504 1271.26 505.805 1266.57 504.997C1262.05 504.188 1257.92 503.783 1254.2 503.783C1248.22 503.783 1243.2 504.511 1239.16 505.967C1235.28 507.423 1233.33 510.253 1233.33 514.459C1233.33 518.179 1234.95 521.09 1238.19 523.193C1241.42 525.134 1245.63 526.752 1250.8 528.046C1255.98 529.178 1261.64 530.391 1267.79 531.685C1274.1 532.817 1280.32 534.273 1286.47 536.052C1292.62 537.831 1298.11 540.338 1302.97 543.573C1307.98 546.647 1311.86 550.771 1314.61 555.947C1317.52 561.123 1318.66 567.755 1318.01 575.842C1317.2 587.65 1311.22 596.869 1300.06 603.501C1289.06 610.133 1274.5 613.448 1256.38 613.448Z" fill="black"/>
<path fill-rule="evenodd" clip-rule="evenodd" d="M1349.98 514.04C1361.59 514.04 1371 504.629 1371 493.02C1371 481.411 1361.59 472 1349.98 472C1338.37 472 1328.96 481.411 1328.96 493.02C1328.96 504.629 1338.37 514.04 1349.98 514.04ZM1349.98 510.951C1359.84 510.951 1367.84 502.957 1367.84 493.096C1367.84 483.234 1359.84 475.24 1349.98 475.24C1340.12 475.24 1332.13 483.234 1332.13 493.096C1332.13 502.957 1340.12 510.951 1349.98 510.951Z" fill="black"/>
<path d="M1350.21 500.609C1346.8 500.609 1344.29 499.885 1342.68 498.438C1341.07 496.991 1340.26 494.926 1340.26 492.243C1340.26 489.545 1341.07 487.412 1342.68 485.844C1344.29 484.277 1346.8 483.493 1350.21 483.493C1354.97 483.493 1358.16 485.128 1359.77 488.399C1358.42 488.867 1356.83 489.568 1355 490.502C1354.57 489.658 1353.87 489.032 1352.92 488.625C1351.99 488.218 1351.03 488.015 1350.05 488.015C1348.61 488.015 1347.53 488.399 1346.82 489.168C1346.11 489.922 1345.76 490.856 1345.76 491.972C1345.76 493.178 1346.13 494.165 1346.89 494.934C1347.66 495.687 1348.82 496.064 1350.39 496.064C1351.64 496.064 1352.64 495.861 1353.38 495.454C1354.11 495.032 1354.66 494.368 1355 493.464C1356.24 494.127 1357.82 494.873 1359.75 495.702C1359 497.526 1357.74 498.8 1355.98 499.523C1354.21 500.247 1352.29 500.609 1350.21 500.609Z" fill="black"/>
<path d="M1070.29 648.938L1066.53 651.656L1066.33 651.067H1074.57V653.169H1064.2V651.067C1065.42 650.152 1066.49 649.377 1067.43 648.741C1068.38 648.106 1069.18 647.537 1069.84 647.032C1070.49 646.528 1070.99 646.014 1071.32 645.491C1071.68 644.968 1071.85 644.361 1071.85 643.669C1071.85 643.146 1071.75 642.689 1071.55 642.296C1071.34 641.885 1071.02 641.568 1070.59 641.344C1070.18 641.101 1069.64 640.979 1068.97 640.979C1068.15 640.979 1067.44 641.241 1066.84 641.764C1066.24 642.287 1065.94 642.969 1065.94 643.81H1063.98C1063.89 642.876 1064.06 642.044 1064.49 641.316C1064.93 640.568 1065.55 639.98 1066.33 639.55C1067.14 639.102 1068.02 638.878 1068.97 638.878C1069.79 638.878 1070.52 639.009 1071.15 639.27C1071.79 639.513 1072.32 639.849 1072.75 640.279C1073.2 640.709 1073.54 641.204 1073.76 641.764C1073.98 642.324 1074.1 642.913 1074.1 643.529C1074.1 644.09 1074 644.604 1073.82 645.071C1073.65 645.538 1073.4 645.986 1073.06 646.416C1072.74 646.845 1072.35 647.266 1071.88 647.677C1071.42 648.088 1070.88 648.508 1070.29 648.938ZM1082.45 647.845L1082.48 647.705C1083.19 647.761 1083.84 647.882 1084.44 648.069C1085.04 648.256 1085.56 648.536 1086.01 648.91C1086.46 649.265 1086.8 649.732 1087.05 650.311C1087.29 650.89 1087.41 651.59 1087.41 652.412C1087.41 653.365 1087.19 654.234 1086.74 655.018C1086.29 655.822 1085.65 656.457 1084.83 656.924C1084.03 657.41 1083.09 657.652 1082 657.652C1080.99 657.652 1080.07 657.41 1079.23 656.924C1078.41 656.457 1077.76 655.822 1077.29 655.018C1076.85 654.234 1076.67 653.365 1076.76 652.412H1078.72C1078.72 653.01 1078.85 653.543 1079.12 654.01C1079.38 654.495 1079.75 654.878 1080.24 655.159C1080.72 655.439 1081.31 655.579 1082 655.579C1082.97 655.579 1083.74 655.28 1084.3 654.682C1084.88 654.084 1085.17 653.29 1085.17 652.3C1085.17 651.31 1084.85 650.507 1084.22 649.89C1083.6 649.274 1082.75 648.966 1081.67 648.966H1080.07V646.892H1081.67C1082.38 646.892 1082.97 646.771 1083.46 646.528C1083.95 646.266 1084.31 645.902 1084.55 645.435C1084.8 644.968 1084.92 644.435 1084.92 643.838C1084.92 642.997 1084.66 642.315 1084.16 641.792C1083.67 641.25 1082.94 640.979 1081.95 640.979C1081.12 640.979 1080.42 641.25 1079.84 641.792C1079.27 642.315 1078.98 642.997 1078.98 643.838H1077.01C1076.94 643.146 1077.01 642.502 1077.24 641.904C1077.48 641.306 1077.84 640.783 1078.3 640.335C1078.77 639.868 1079.31 639.513 1079.93 639.27C1080.56 639.009 1081.24 638.878 1081.95 638.878C1082.99 638.878 1083.91 639.102 1084.69 639.55C1085.48 639.98 1086.08 640.568 1086.51 641.316C1086.94 642.063 1087.16 642.904 1087.16 643.838C1087.16 644.604 1087.04 645.248 1086.79 645.771C1086.57 646.276 1086.24 646.677 1085.81 646.976C1085.4 647.275 1084.91 647.49 1084.33 647.621C1083.75 647.751 1083.12 647.826 1082.45 647.845ZM1096.35 645.043C1095.16 645.043 1094.1 644.79 1093.19 644.286C1092.29 643.782 1091.59 643.09 1091.08 642.212C1090.58 641.316 1090.33 640.307 1090.33 639.186C1090.33 638.065 1090.58 637.066 1091.08 636.188C1091.59 635.291 1092.29 634.581 1093.19 634.058C1094.1 633.535 1095.16 633.273 1096.35 633.273C1097.55 633.273 1098.59 633.535 1099.49 634.058C1100.39 634.581 1101.08 635.291 1101.56 636.188C1102.07 637.066 1102.32 638.065 1102.32 639.186C1102.32 640.307 1102.07 641.316 1101.56 642.212C1101.08 643.09 1100.39 643.782 1099.49 644.286C1098.59 644.79 1097.55 645.043 1096.35 645.043ZM1096.35 642.969C1097.12 642.969 1097.78 642.81 1098.34 642.493C1098.9 642.156 1099.33 641.708 1099.63 641.148C1099.95 640.568 1100.11 639.915 1100.11 639.186C1100.11 638.457 1099.95 637.804 1099.63 637.224C1099.33 636.645 1098.9 636.188 1098.34 635.851C1097.78 635.515 1097.12 635.347 1096.35 635.347C1095.59 635.347 1094.91 635.515 1094.33 635.851C1093.77 636.188 1093.33 636.645 1093.02 637.224C1092.7 637.785 1092.54 638.439 1092.54 639.186C1092.54 639.915 1092.69 640.568 1092.99 641.148C1093.31 641.708 1093.76 642.156 1094.33 642.493C1094.91 642.81 1095.59 642.969 1096.35 642.969ZM1112.37 645.603C1113.19 645.603 1113.94 645.743 1114.61 646.023C1115.28 646.304 1115.86 646.715 1116.35 647.256C1116.83 647.779 1117.21 648.415 1117.47 649.162C1117.75 649.89 1117.89 650.722 1117.89 651.656C1117.89 652.889 1117.62 653.954 1117.07 654.85C1116.55 655.747 1115.84 656.438 1114.95 656.924C1114.07 657.41 1113.1 657.652 1112.03 657.652C1111.23 657.652 1110.46 657.522 1109.73 657.26C1109 657.017 1108.36 656.653 1107.8 656.167C1107.26 655.7 1106.81 655.121 1106.45 654.43C1106.12 653.757 1105.92 652.991 1105.87 652.132H1108.11C1108.18 652.842 1108.38 653.449 1108.7 653.954C1109.03 654.458 1109.48 654.832 1110.04 655.074C1110.6 655.336 1111.26 655.467 1112.03 655.467C1112.52 655.467 1112.97 655.383 1113.4 655.215C1113.85 655.046 1114.24 654.804 1114.58 654.486C1114.92 654.168 1115.18 653.767 1115.37 653.281C1115.57 652.814 1115.67 652.272 1115.67 651.656C1115.67 651.039 1115.58 650.498 1115.39 650.03C1115.23 649.545 1114.98 649.143 1114.66 648.826C1114.37 648.489 1114 648.237 1113.57 648.069C1113.14 647.882 1112.68 647.789 1112.17 647.789C1111.7 647.789 1111.24 647.854 1110.77 647.985C1110.3 648.116 1109.87 648.349 1109.48 648.685C1109.09 649.022 1108.75 649.498 1108.47 650.115L1106.4 649.694L1106.96 639.158H1116.46V641.26H1109.09L1108.61 649.162L1108.42 648.966C1108.6 648.162 1108.89 647.518 1109.28 647.032C1109.7 646.546 1110.16 646.191 1110.69 645.967C1111.23 645.724 1111.79 645.603 1112.37 645.603ZM1120.41 641.26V639.158H1131.09V641.26L1123.66 657.372H1121.28L1129.33 640.335L1129.91 641.26H1120.41ZM1133.87 641.652L1133.28 641.035C1133.58 640.512 1133.84 639.999 1134.07 639.494C1134.29 638.971 1134.41 638.467 1134.43 637.981L1133.06 637.673V634.955H1136.08V636.916C1136.08 638.056 1135.85 638.99 1135.38 639.718C1134.93 640.447 1134.43 641.091 1133.87 641.652ZM1144.64 648.938L1140.88 651.656L1140.69 651.067H1148.92V653.169H1138.56V651.067C1139.77 650.152 1140.84 649.377 1141.78 648.741C1142.73 648.106 1143.53 647.537 1144.19 647.032C1144.84 646.528 1145.34 646.014 1145.67 645.491C1146.03 644.968 1146.21 644.361 1146.21 643.669C1146.21 643.146 1146.1 642.689 1145.9 642.296C1145.69 641.885 1145.37 641.568 1144.95 641.344C1144.53 641.101 1143.99 640.979 1143.32 640.979C1142.5 640.979 1141.79 641.241 1141.19 641.764C1140.59 642.287 1140.29 642.969 1140.29 643.81H1138.33C1138.24 642.876 1138.41 642.044 1138.84 641.316C1139.28 640.568 1139.9 639.98 1140.69 639.55C1141.49 639.102 1142.37 638.878 1143.32 638.878C1144.14 638.878 1144.87 639.009 1145.51 639.27C1146.14 639.513 1146.67 639.849 1147.1 640.279C1147.55 640.709 1147.89 641.204 1148.11 641.764C1148.34 642.324 1148.45 642.913 1148.45 643.529C1148.45 644.09 1148.35 644.604 1148.17 645.071C1148 645.538 1147.75 645.986 1147.41 646.416C1147.09 646.845 1146.7 647.266 1146.23 647.677C1145.77 648.088 1145.23 648.508 1144.64 648.938ZM1158.23 645.603C1159.05 645.603 1159.8 645.743 1160.47 646.023C1161.15 646.304 1161.72 646.715 1162.21 647.256C1162.7 647.779 1163.07 648.415 1163.33 649.162C1163.61 649.89 1163.75 650.722 1163.75 651.656C1163.75 652.889 1163.48 653.954 1162.94 654.85C1162.42 655.747 1161.71 656.438 1160.81 656.924C1159.93 657.41 1158.96 657.652 1157.89 657.652C1157.09 657.652 1156.33 657.522 1155.6 657.26C1154.87 657.017 1154.22 656.653 1153.66 656.167C1153.12 655.7 1152.67 655.121 1152.32 654.43C1151.98 653.757 1151.79 652.991 1151.73 652.132H1153.97C1154.05 652.842 1154.24 653.449 1154.56 653.954C1154.9 654.458 1155.34 654.832 1155.91 655.074C1156.47 655.336 1157.13 655.467 1157.89 655.467C1158.38 655.467 1158.84 655.383 1159.27 655.215C1159.72 655.046 1160.11 654.804 1160.44 654.486C1160.78 654.168 1161.04 653.767 1161.23 653.281C1161.44 652.814 1161.54 652.272 1161.54 651.656C1161.54 651.039 1161.44 650.498 1161.26 650.03C1161.09 649.545 1160.85 649.143 1160.53 648.826C1160.23 648.489 1159.87 648.237 1159.44 648.069C1159.01 647.882 1158.54 647.789 1158.04 647.789C1157.57 647.789 1157.1 647.854 1156.63 647.985C1156.17 648.116 1155.74 648.349 1155.34 648.685C1154.95 649.022 1154.62 649.498 1154.34 650.115L1152.26 649.694L1152.82 639.158H1162.32V641.26H1154.95L1154.48 649.162L1154.28 648.966C1154.47 648.162 1154.76 647.518 1155.15 647.032C1155.56 646.546 1156.03 646.191 1156.55 645.967C1157.09 645.724 1157.65 645.603 1158.23 645.603ZM1166.03 647.256H1168.04C1168.1 648.041 1168.33 648.741 1168.74 649.358C1169.16 649.974 1169.72 650.46 1170.43 650.815C1171.15 651.17 1172 651.348 1172.98 651.348C1173.82 651.348 1174.52 651.226 1175.08 650.983C1175.66 650.722 1176.09 650.367 1176.37 649.918C1176.67 649.47 1176.81 648.947 1176.81 648.349C1176.81 647.733 1176.67 647.238 1176.37 646.864C1176.07 646.49 1175.64 646.173 1175.08 645.911C1174.52 645.65 1173.85 645.398 1173.09 645.155C1172.36 644.93 1171.62 644.669 1170.87 644.37C1170.13 644.071 1169.43 643.707 1168.77 643.277C1168.14 642.848 1167.62 642.334 1167.23 641.736C1166.84 641.119 1166.64 640.382 1166.64 639.522C1166.64 638.682 1166.87 637.897 1167.32 637.168C1167.78 636.421 1168.45 635.823 1169.33 635.375C1170.23 634.908 1171.3 634.674 1172.56 634.674C1174.52 634.674 1175.98 635.207 1176.95 636.272C1177.93 637.337 1178.39 638.747 1178.36 640.503H1176.34C1176.3 639.177 1175.93 638.224 1175.22 637.645C1174.51 637.066 1173.58 636.776 1172.44 636.776C1171.49 636.776 1170.66 637 1169.95 637.449C1169.24 637.878 1168.88 638.56 1168.88 639.494C1168.88 639.905 1168.96 640.269 1169.11 640.587C1169.28 640.886 1169.54 641.166 1169.89 641.428C1170.27 641.689 1170.76 641.951 1171.38 642.212C1172.01 642.455 1172.79 642.726 1173.7 643.025C1174.3 643.212 1174.91 643.436 1175.53 643.698C1176.16 643.959 1176.74 644.286 1177.26 644.678C1177.8 645.071 1178.23 645.575 1178.55 646.191C1178.89 646.789 1179.06 647.546 1179.06 648.461C1179.06 649.339 1178.84 650.161 1178.41 650.927C1178 651.674 1177.35 652.282 1176.45 652.749C1175.57 653.216 1174.43 653.449 1173.03 653.449C1171.84 653.449 1170.81 653.29 1169.95 652.973C1169.11 652.637 1168.42 652.207 1167.88 651.684C1167.33 651.161 1166.91 650.619 1166.61 650.059C1166.33 649.479 1166.15 648.938 1166.05 648.433C1165.96 647.929 1165.95 647.537 1166.03 647.256ZM1197.27 639.018V657.232H1195.03V641.792L1195.56 641.96L1189.26 651.908L1188.78 651.067H1195.48V653.169H1187.32V651.067L1195.03 639.018H1197.27ZM1196.82 653.169V651.067H1199.85V653.169H1196.82ZM1208.71 641.4C1209.71 641.4 1210.63 641.652 1211.45 642.156C1212.29 642.642 1212.96 643.343 1213.44 644.258C1213.95 645.155 1214.19 646.219 1214.17 647.452C1214.15 648.685 1213.86 649.75 1213.3 650.647C1212.76 651.544 1212.03 652.235 1211.12 652.721C1210.22 653.206 1209.22 653.449 1208.12 653.449C1207.03 653.449 1206.03 653.206 1205.12 652.721C1204.22 652.235 1203.51 651.553 1202.99 650.675C1202.47 649.778 1202.21 648.713 1202.23 647.48C1202.25 647.051 1202.31 646.584 1202.4 646.079C1202.49 645.575 1202.66 645.033 1202.91 644.454C1202.94 644.342 1203.06 644.09 1203.24 643.698C1203.43 643.305 1203.65 642.819 1203.91 642.24C1204.19 641.661 1204.48 641.045 1204.78 640.391C1205.1 639.737 1205.41 639.093 1205.71 638.457C1206.01 637.804 1206.28 637.215 1206.52 636.692C1206.78 636.169 1206.99 635.749 1207.14 635.431C1207.29 635.113 1207.36 634.955 1207.36 634.955H1209.77L1204.11 646.332L1203.3 647.06C1203.71 646.219 1204.11 645.454 1204.5 644.762C1204.9 644.052 1205.3 643.455 1205.71 642.969C1206.14 642.465 1206.6 642.082 1207.08 641.82C1207.57 641.54 1208.11 641.4 1208.71 641.4ZM1208.12 651.291C1209.13 651.291 1210 650.965 1210.75 650.311C1211.52 649.638 1211.91 648.676 1211.93 647.424C1211.95 646.21 1211.6 645.267 1210.89 644.594C1210.18 643.903 1209.31 643.557 1208.29 643.557C1207.15 643.557 1206.23 643.94 1205.54 644.706C1204.85 645.454 1204.49 646.369 1204.47 647.452C1204.46 648.685 1204.8 649.638 1205.51 650.311C1206.24 650.965 1207.11 651.291 1208.12 651.291ZM1223.11 645.043C1221.91 645.043 1220.86 644.79 1219.94 644.286C1219.04 643.782 1218.34 643.09 1217.84 642.212C1217.33 641.316 1217.08 640.307 1217.08 639.186C1217.08 638.065 1217.33 637.066 1217.84 636.188C1218.34 635.291 1219.04 634.581 1219.94 634.058C1220.86 633.535 1221.91 633.273 1223.11 633.273C1224.3 633.273 1225.35 633.535 1226.25 634.058C1227.14 634.581 1227.83 635.291 1228.32 636.188C1228.82 637.066 1229.08 638.065 1229.08 639.186C1229.08 640.307 1228.82 641.316 1228.32 642.212C1227.83 643.09 1227.14 643.782 1226.25 644.286C1225.35 644.79 1224.3 645.043 1223.11 645.043ZM1223.11 642.969C1223.87 642.969 1224.54 642.81 1225.1 642.493C1225.66 642.156 1226.09 641.708 1226.39 641.148C1226.7 640.568 1226.86 639.915 1226.86 639.186C1226.86 638.457 1226.7 637.804 1226.39 637.224C1226.09 636.645 1225.66 636.188 1225.1 635.851C1224.54 635.515 1223.87 635.347 1223.11 635.347C1222.34 635.347 1221.67 635.515 1221.09 635.851C1220.53 636.188 1220.09 636.645 1219.77 637.224C1219.46 637.785 1219.3 638.439 1219.3 639.186C1219.3 639.915 1219.45 640.568 1219.74 641.148C1220.06 641.708 1220.51 642.156 1221.09 642.493C1221.67 642.81 1222.34 642.969 1223.11 642.969ZM1231.64 641.26V639.158H1237.16V653.169H1234.92V641.26H1231.64ZM1246.47 650.927C1245.52 650.927 1244.62 650.684 1243.78 650.199C1242.94 649.694 1242.26 648.984 1241.74 648.069C1241.23 647.154 1240.99 646.079 1241.01 644.846C1241.03 643.613 1241.31 642.558 1241.85 641.68C1242.41 640.783 1243.15 640.092 1244.06 639.606C1244.98 639.121 1245.98 638.878 1247.06 638.878C1248.16 638.878 1249.16 639.121 1250.06 639.606C1250.96 640.092 1251.67 640.783 1252.19 641.68C1252.71 642.558 1252.96 643.613 1252.95 644.846C1252.93 645.276 1252.87 645.743 1252.78 646.248C1252.68 646.733 1252.52 647.275 1252.27 647.873C1252.24 647.985 1252.12 648.237 1251.94 648.629C1251.75 649.022 1251.52 649.507 1251.24 650.087C1250.97 650.666 1250.68 651.282 1250.37 651.936C1250.07 652.59 1249.77 653.234 1249.47 653.869C1249.17 654.523 1248.89 655.112 1248.63 655.635C1248.39 656.158 1248.19 656.578 1248.04 656.896C1247.89 657.213 1247.82 657.372 1247.82 657.372H1245.41L1251.07 645.995L1251.88 645.267C1251.47 646.107 1251.07 646.883 1250.68 647.593C1250.28 648.284 1249.87 648.882 1249.44 649.386C1249.03 649.872 1248.58 650.255 1248.1 650.535C1247.61 650.796 1247.07 650.927 1246.47 650.927ZM1247.06 641.035C1246.05 641.035 1245.17 641.372 1244.43 642.044C1243.68 642.698 1243.29 643.651 1243.25 644.902C1243.23 646.098 1243.58 647.041 1244.29 647.733C1245 648.424 1245.86 648.769 1246.89 648.769C1248.05 648.769 1248.97 648.387 1249.64 647.621C1250.33 646.855 1250.68 645.93 1250.7 644.846C1250.72 644.024 1250.56 643.333 1250.23 642.773C1249.89 642.212 1249.44 641.783 1248.88 641.484C1248.34 641.185 1247.73 641.035 1247.06 641.035ZM1255.86 641.652L1255.28 641.035C1255.57 640.512 1255.84 639.999 1256.06 639.494C1256.28 638.971 1256.41 638.467 1256.42 637.981L1255.05 637.673V634.955H1258.08V636.916C1258.08 638.056 1257.84 638.99 1257.38 639.718C1256.93 640.447 1256.42 641.091 1255.86 641.652ZM1267.53 645.603C1268.35 645.603 1269.1 645.743 1269.77 646.023C1270.44 646.304 1271.02 646.715 1271.51 647.256C1271.99 647.779 1272.37 648.415 1272.63 649.162C1272.91 649.89 1273.05 650.722 1273.05 651.656C1273.05 652.889 1272.78 653.954 1272.24 654.85C1271.71 655.747 1271 656.438 1270.11 656.924C1269.23 657.41 1268.26 657.652 1267.19 657.652C1266.39 657.652 1265.62 657.522 1264.89 657.26C1264.17 657.017 1263.52 656.653 1262.96 656.167C1262.42 655.7 1261.97 655.121 1261.62 654.43C1261.28 653.757 1261.08 652.991 1261.03 652.132H1263.27C1263.34 652.842 1263.54 653.449 1263.86 653.954C1264.19 654.458 1264.64 654.832 1265.2 655.074C1265.76 655.336 1266.43 655.467 1267.19 655.467C1267.68 655.467 1268.13 655.383 1268.56 655.215C1269.01 655.046 1269.41 654.804 1269.74 654.486C1270.08 654.168 1270.34 653.767 1270.53 653.281C1270.73 652.814 1270.83 652.272 1270.83 651.656C1270.83 651.039 1270.74 650.498 1270.55 650.03C1270.39 649.545 1270.14 649.143 1269.83 648.826C1269.53 648.489 1269.16 648.237 1268.73 648.069C1268.3 647.882 1267.84 647.789 1267.33 647.789C1266.86 647.789 1266.4 647.854 1265.93 647.985C1265.46 648.116 1265.03 648.349 1264.64 648.685C1264.25 649.022 1263.91 649.498 1263.63 650.115L1261.56 649.694L1262.12 639.158H1271.62V641.26H1264.25L1263.77 649.162L1263.58 648.966C1263.76 648.162 1264.05 647.518 1264.45 647.032C1264.86 646.546 1265.32 646.191 1265.85 645.967C1266.39 645.724 1266.95 645.603 1267.53 645.603ZM1281.91 641.4C1282.92 641.4 1283.83 641.652 1284.65 642.156C1285.49 642.642 1286.16 643.343 1286.64 644.258C1287.15 645.155 1287.39 646.219 1287.37 647.452C1287.35 648.685 1287.06 649.75 1286.5 650.647C1285.96 651.544 1285.23 652.235 1284.32 652.721C1283.42 653.206 1282.42 653.449 1281.32 653.449C1280.24 653.449 1279.24 653.206 1278.32 652.721C1277.42 652.235 1276.71 651.553 1276.19 650.675C1275.67 649.778 1275.42 648.713 1275.44 647.48C1275.45 647.051 1275.51 646.584 1275.6 646.079C1275.7 645.575 1275.86 645.033 1276.11 644.454C1276.14 644.342 1276.26 644.09 1276.44 643.698C1276.63 643.305 1276.85 642.819 1277.12 642.24C1277.4 641.661 1277.69 641.045 1277.99 640.391C1278.3 639.737 1278.61 639.093 1278.91 638.457C1279.21 637.804 1279.48 637.215 1279.72 636.692C1279.98 636.169 1280.19 635.749 1280.34 635.431C1280.49 635.113 1280.56 634.955 1280.56 634.955H1282.97L1277.31 646.332L1276.5 647.06C1276.91 646.219 1277.31 645.454 1277.7 644.762C1278.1 644.052 1278.5 643.455 1278.91 642.969C1279.34 642.465 1279.8 642.082 1280.28 641.82C1280.77 641.54 1281.31 641.4 1281.91 641.4ZM1281.32 651.291C1282.33 651.291 1283.21 650.965 1283.95 650.311C1284.72 649.638 1285.11 648.676 1285.13 647.424C1285.15 646.21 1284.8 645.267 1284.09 644.594C1283.38 643.903 1282.52 643.557 1281.49 643.557C1280.35 643.557 1279.43 643.94 1278.74 644.706C1278.05 645.454 1277.7 646.369 1277.68 647.452C1277.66 648.685 1278 649.638 1278.71 650.311C1279.44 650.965 1280.31 651.291 1281.32 651.291ZM1295.52 653.169L1288.97 634.955H1291.38L1297.01 650.759H1296.34L1301.75 634.955H1304.16L1309.56 650.759H1308.89L1314.52 634.955H1316.88L1310.38 653.169H1308.02L1302.64 636.804H1303.26L1297.88 653.169H1295.52Z" fill="black"/>
<defs>
<filter id="filter0_f_648_1189" x="454" y="79" width="960" height="960" filterUnits="userSpaceOnUse" color-interpolation-filters="sRGB">
<feFlood flood-opacity="0" result="BackgroundImageFix"/>
<feBlend mode="normal" in="SourceGraphic" in2="BackgroundImageFix" result="shape"/>
<feGaussianBlur stdDeviation="96.5" result="effect1_foregroundBlur_648_1189"/>
</filter>
<filter id="filter1_f_648_1189" x="454" y="79" width="960" height="960" filterUnits="userSpaceOnUse" color-interpolation-filters="sRGB">
<feFlood flood-opacity="0" result="BackgroundImageFix"/>
<feBlend mode="normal" in="SourceGraphic" in2="BackgroundImageFix" result="shape"/>
<feGaussianBlur stdDeviation="96.5" result="effect1_foregroundBlur_648_1189"/>
</filter>
<radialGradient id="paint0_radial_648_1189" cx="0" cy="0" r="1" gradientUnits="userSpaceOnUse" gradientTransform="translate(934 559) rotate(90) scale(287)">
<stop stop-color="#0500FF"/>
<stop offset="0.348958" stop-color="#0500FF"/>
<stop offset="1" stop-color="#4C0494"/>
</radialGradient>
<radialGradient id="paint1_radial_648_1189" cx="0" cy="0" r="1" gradientUnits="userSpaceOnUse" gradientTransform="translate(934 559) rotate(90) scale(287)">
<stop stop-color="#0500FF"/>
<stop offset="0.510417" stop-color="#0500FF"/>
<stop offset="0.791667" stop-color="#F461CB"/>
<stop offset="1" stop-color="#AD00FF"/>
</radialGradient>
</defs>
</svg>
