<svg width="182" height="32" viewBox="0 0 182 32" fill="none" xmlns="http://www.w3.org/2000/svg">
<path d="M20.8177 0.536537H26.505V30.7436H16.0961L5.74096 2.95096H5.63365V30.7436H0V0.536537H9.65769L20.7104 28.3292H20.8177V0.536537Z" fill="black"/>
<path d="M30.6066 30.7436L41.23 0.536537H46.9173L57.7017 30.7436H54.0533L50.7804 21.3006H37.5279L34.255 30.7436H30.6066ZM44.181 2.03884L38.4937 18.4033H49.8146L44.181 2.03884Z" fill="black"/>
<path d="M74.6035 31.4948C70.3112 31.4948 67.0383 30.3144 64.7849 27.9536C62.5672 25.5571 61.4583 22.1948 61.4583 17.8667V0.536537H67.3066V17.8131C67.3066 20.0308 67.6643 21.7477 68.3797 22.9638C69.0951 24.18 70.0072 25.0385 71.116 25.5392C72.2249 26.04 73.3874 26.2904 74.6035 26.2904C74.7063 26.2904 94.4744 26.289 94.5757 26.2864C95.8147 26.2539 96.9467 26.0227 97.9717 25.5929C99.0805 25.0921 99.9569 24.2336 100.601 23.0175C101.28 21.8013 101.62 20.0665 101.62 17.8131V0.536537H107.415V17.8667C107.415 22.2663 106.306 25.6465 104.088 28.0073C101.958 30.2776 98.7868 31.4395 94.5757 31.4929C94.4742 31.4941 74.7062 31.4948 74.6035 31.4948Z" fill="black"/>
<path d="M125.32 31.2802C123.604 31.2802 121.922 31.0834 120.277 30.69C118.632 30.2965 117.147 29.6706 115.824 28.8121C114.5 27.9179 113.427 26.7733 112.604 25.3783C111.818 23.9833 111.424 22.3021 111.424 20.3348H118.936C118.936 20.5494 119.007 20.8892 119.15 21.3542C119.329 21.7835 119.651 22.2485 120.116 22.7492C120.617 23.25 121.314 23.6792 122.209 24.0369C123.139 24.3588 124.373 24.5198 125.911 24.5198C126.59 24.5198 127.288 24.4661 128.003 24.3588C128.719 24.2515 129.327 24.0369 129.827 23.715C130.328 23.3573 130.579 22.8208 130.579 22.1054C130.579 21.3542 130.221 20.764 129.505 20.3348C128.826 19.9056 127.914 19.5658 126.769 19.3154C125.66 19.0292 124.426 18.7431 123.067 18.4569C121.744 18.1708 120.42 17.8131 119.097 17.3838C117.773 16.9546 116.557 16.3823 115.448 15.6669C114.375 14.9158 113.534 13.9679 112.926 12.8233C112.354 11.6429 112.122 10.1763 112.229 8.42365C112.408 5.77673 113.66 3.72 115.985 2.25346C118.31 0.751155 121.547 0 125.696 0C127.914 0 129.988 0.393462 131.92 1.18039C133.887 1.96731 135.479 3.16557 136.695 4.77519C137.947 6.3848 138.573 8.42365 138.573 10.8917H131.33C131.33 9.78288 130.954 8.96019 130.203 8.42365C129.488 7.85134 128.611 7.47577 127.574 7.29692C126.572 7.11807 125.66 7.02865 124.838 7.02865C123.514 7.02865 122.405 7.18961 121.511 7.51153C120.653 7.83346 120.223 8.45942 120.223 9.38942C120.223 10.2121 120.581 10.856 121.296 11.321C122.012 11.7502 122.942 12.1079 124.086 12.394C125.231 12.6444 126.483 12.9127 127.842 13.1988C129.237 13.4492 130.614 13.7711 131.974 14.1646C133.333 14.5581 134.549 15.1125 135.622 15.8279C136.731 16.5075 137.589 17.4196 138.197 18.5642C138.841 19.7088 139.092 21.1754 138.949 22.9638C138.77 25.575 137.446 27.6138 134.978 29.0804C132.546 30.5469 129.327 31.2802 125.32 31.2802Z" fill="black"/>
<path d="M156.653 31.2802C154.937 31.2802 153.255 31.0834 151.61 30.69C149.965 30.2965 148.48 29.6706 147.157 28.8121C145.833 27.9179 144.76 26.7733 143.937 25.3783C143.151 23.9833 142.757 22.3021 142.757 20.3348H150.269C150.269 20.5494 150.34 20.8892 150.483 21.3542C150.662 21.7835 150.984 22.2485 151.449 22.7492C151.95 23.25 152.647 23.6792 153.542 24.0369C154.472 24.3588 155.706 24.5198 157.244 24.5198C157.923 24.5198 158.621 24.4661 159.336 24.3588C160.052 24.2515 160.66 24.0369 161.16 23.715C161.661 23.3573 161.912 22.8208 161.912 22.1054C161.912 21.3542 161.554 20.764 160.838 20.3348C160.159 19.9056 159.247 19.5658 158.102 19.3154C156.993 19.0292 155.759 18.7431 154.4 18.4569C153.077 18.1708 151.753 17.8131 150.43 17.3838C149.106 16.9546 147.89 16.3823 146.781 15.6669C145.708 14.9158 144.867 13.9679 144.259 12.8233C143.687 11.6429 143.455 10.1763 143.562 8.42365C143.741 5.77673 144.993 3.72 147.318 2.25346C149.643 0.751155 152.88 0 157.029 0C159.247 0 161.321 0.393462 163.253 1.18039C165.22 1.96731 166.812 3.16557 168.028 4.77519C169.28 6.3848 169.906 8.42365 169.906 10.8917H162.663C162.663 9.78288 162.287 8.96019 161.536 8.42365C160.821 7.85134 159.944 7.47577 158.907 7.29692C157.905 7.11807 156.993 7.02865 156.171 7.02865C154.847 7.02865 153.738 7.18961 152.844 7.51153C151.986 7.83346 151.556 8.45942 151.556 9.38942C151.556 10.2121 151.914 10.856 152.629 11.321C153.345 11.7502 154.275 12.1079 155.419 12.394C156.564 12.6444 157.816 12.9127 159.175 13.1988C160.57 13.4492 161.947 13.7711 163.307 14.1646C164.666 14.5581 165.882 15.1125 166.955 15.8279C168.064 16.5075 168.922 17.4196 169.53 18.5642C170.174 19.7088 170.425 21.1754 170.282 22.9638C170.103 25.575 168.779 27.6138 166.311 29.0804C163.879 30.5469 160.66 31.2802 156.653 31.2802Z" fill="black"/>
<path fill-rule="evenodd" clip-rule="evenodd" d="M177.352 9.29673C179.919 9.29673 182 7.2156 182 4.64839C182 2.08119 179.919 6.10352e-05 177.352 6.10352e-05C174.784 6.10352e-05 172.703 2.08119 172.703 4.64839C172.703 7.2156 174.784 9.29673 177.352 9.29673ZM177.352 8.61372C179.533 8.61372 181.3 6.84588 181.3 4.66514C181.3 2.4844 179.533 0.716558 177.352 0.716558C175.171 0.716558 173.403 2.4844 173.403 4.66514C173.403 6.84588 175.171 8.61372 177.352 8.61372Z" fill="black"/>
<path d="M177.402 6.57692C176.649 6.57692 176.094 6.41692 175.737 6.09692C175.381 5.77692 175.202 5.32025 175.202 4.72692C175.202 4.13025 175.381 3.65858 175.737 3.31192C176.094 2.96525 176.649 2.79192 177.402 2.79192C178.456 2.79192 179.161 3.15359 179.517 3.87692C179.217 3.98025 178.866 4.13525 178.462 4.34192C178.366 4.15525 178.212 4.01692 178.002 3.92692C177.796 3.83692 177.584 3.79192 177.367 3.79192C177.047 3.79192 176.809 3.87692 176.652 4.04692C176.496 4.21358 176.417 4.42025 176.417 4.66692C176.417 4.93358 176.501 5.15192 176.667 5.32192C176.837 5.48858 177.096 5.57192 177.442 5.57192C177.719 5.57192 177.939 5.52692 178.102 5.43692C178.266 5.34358 178.386 5.19692 178.462 4.99692C178.736 5.14358 179.086 5.30858 179.512 5.49192C179.346 5.89525 179.067 6.17692 178.677 6.33692C178.287 6.49692 177.862 6.57692 177.402 6.57692Z" fill="black"/>
</svg>
