<svg width="700" height="100" viewBox="0 0 700 100" fill="none" xmlns="http://www.w3.org/2000/svg">
<path d="M24.4647 52.5269C21.7464 52.5269 19.0577 52.2019 16.3985 51.5519C13.7983 50.9018 11.4346 49.8972 9.30724 48.5381C7.17987 47.1789 5.49571 45.4061 4.25474 43.2197C3.01378 40.9741 2.36375 38.2854 2.30466 35.1534H11.4346C11.4346 35.4489 11.5528 36.0989 11.7892 37.1035C12.0255 38.049 12.5574 39.0831 13.3847 40.2059C14.2711 41.3287 15.6302 42.3037 17.4621 43.131C19.3531 43.9583 21.8942 44.372 25.0852 44.372C28.5717 44.372 31.1423 43.722 32.7969 42.4219C34.5106 41.1219 35.3675 39.7332 35.3675 38.2558C35.3675 36.6012 34.7765 35.3011 33.5947 34.3556C32.4719 33.3511 30.9355 32.5533 28.9854 31.9624C27.0944 31.3123 24.9966 30.7214 22.6919 30.1895C20.4464 29.6577 18.1713 29.0668 15.8666 28.4167C13.6211 27.7076 11.5528 26.7917 9.6618 25.6689C7.8299 24.487 6.38211 22.9801 5.31843 21.1482C4.25474 19.3163 3.78199 16.9822 3.90018 14.1457C4.19565 9.95003 6.20483 6.67034 9.92772 4.30659C13.6506 1.94286 18.5849 0.760986 24.7306 0.760986C28.2763 0.760986 31.5559 1.41102 34.5697 2.71107C37.6426 3.95204 40.095 5.84303 41.9269 8.38405C43.8178 10.866 44.7633 14.057 44.7633 17.9572H35.988C35.988 16.1253 35.5743 14.648 34.747 13.5252C33.9197 12.3433 32.856 11.4569 31.5559 10.866C30.315 10.2159 28.9854 9.80229 27.5671 9.62501C26.1489 9.38864 24.8784 9.27045 23.7556 9.27045C20.8009 9.27045 18.3485 9.77275 16.3985 10.7773C14.5075 11.7819 13.562 13.2593 13.562 15.2093C13.5029 16.864 14.0643 18.1936 15.2461 19.1982C16.428 20.2028 17.994 21.0005 19.9441 21.5914C21.8942 22.1824 24.0215 22.7142 26.3262 23.187C28.6308 23.6597 30.9355 24.2507 33.2401 24.9598C35.5448 25.6098 37.6426 26.4962 39.5336 27.619C41.4246 28.6827 42.9019 30.16 43.9656 32.051C45.0293 33.8829 45.4725 36.2762 45.2952 39.2309C45.0588 43.4265 43.0201 46.7062 39.179 49.0699C35.3379 51.3746 30.4332 52.5269 24.4647 52.5269Z" fill="black"/>
<path d="M50.0541 9.44773V1.64739H88.6126V9.44773H73.8096V51.5519H64.7683V9.44773H50.0541Z" fill="black"/>
<path d="M116.786 52.7928C109.695 52.7928 104.288 50.8427 100.565 46.9426C96.9013 42.9833 95.0695 37.4285 95.0695 30.2782V1.64739H104.731V30.1895C104.731 33.8533 105.322 36.6898 106.504 38.699C107.686 40.7082 109.193 42.1264 111.025 42.9537C112.857 43.7811 114.777 44.1947 116.786 44.1947C117.027 44.1947 164.264 44.1903 164.5 44.1815C166.466 44.1081 168.267 43.7284 169.902 43.0424C171.734 42.2151 173.182 40.7968 174.246 38.7877C175.369 36.7785 175.93 33.9124 175.93 30.1895V1.64739H185.503V30.2782C185.503 37.5467 183.671 43.131 180.007 47.0312C176.523 50.7445 171.354 52.6629 164.5 52.7864C164.264 52.7907 117.026 52.7928 116.786 52.7928Z" fill="black"/>
<path d="M240.613 26.5553C240.613 33.1147 239.313 38.2263 236.713 41.8901C234.172 45.4948 230.567 48.0062 225.899 49.4245C221.231 50.8427 215.735 51.5519 209.412 51.5519H195.673V1.64739H209.412C215.735 1.64739 221.231 2.59289 225.899 4.48388C230.567 6.31578 234.172 9.06363 236.713 12.7274C239.313 16.3912 240.613 21.0005 240.613 26.5553ZM204.625 44.1061H211.982C215.883 44.1061 219.251 43.6629 222.087 42.7765C224.924 41.831 227.11 40.0877 228.647 37.5467C230.183 35.0057 230.951 31.3123 230.951 26.4667C230.951 20.7346 229.238 16.4799 225.81 13.7025C222.442 10.866 217.833 9.44773 211.982 9.44773H204.625V44.1061Z" fill="black"/>
<path d="M271.411 43.8402V51.5519H249.162V43.8402H255.899V9.44773H249.162V1.64739H271.411V9.44773H264.851V43.8402H271.411Z" fill="black"/>
<path d="M303.758 52.7928C295.722 52.7928 289.576 50.4586 285.321 45.7902C281.066 41.0628 278.939 34.7102 278.939 26.7326C278.939 21.4733 279.855 16.9231 281.687 13.082C283.519 9.18181 286.267 6.16804 289.93 4.04068C293.653 1.85422 298.263 0.760986 303.758 0.760986C311.913 0.760986 318.088 3.12473 322.284 7.85221C326.48 12.5206 328.578 18.8141 328.578 26.7326C328.578 31.8737 327.632 36.4239 325.741 40.3832C323.85 44.2834 321.073 47.3267 317.409 49.5131C313.745 51.6996 309.195 52.7928 303.758 52.7928ZM303.67 44.1061C308.988 44.1061 312.977 42.4515 315.636 39.1422C318.354 35.833 319.714 31.6964 319.714 26.7326C319.714 23.3643 319.123 20.38 317.941 17.7799C316.759 15.1207 314.986 13.0524 312.622 11.5751C310.259 10.0387 307.274 9.27045 303.67 9.27045C298.469 9.27045 294.51 10.866 291.792 14.057C289.074 17.2481 287.714 21.4733 287.714 26.7326C287.714 29.9827 288.276 32.9374 289.399 35.5966C290.58 38.1967 292.353 40.265 294.717 41.8014C297.081 43.3379 300.065 44.1061 303.67 44.1061Z" fill="black"/>
<path d="M349.061 57.0486C346.435 57.0486 344.256 56.1685 342.525 54.4084C340.794 52.6772 339.928 50.5131 339.928 47.9162C339.928 45.2905 340.794 43.112 342.525 41.3807C344.285 39.6495 346.464 38.7838 349.061 38.7838C351.686 38.7838 353.865 39.6639 355.596 41.424C357.327 43.1553 358.193 45.3193 358.193 47.9162C358.193 50.542 357.313 52.7204 355.553 54.4517C353.822 56.183 351.658 57.0486 349.061 57.0486Z" fill="black"/>
<path d="M392.918 52.4383C388.368 52.4383 384.261 51.4632 380.597 49.5131C376.992 47.563 374.126 44.697 371.999 40.915C369.931 37.0739 368.896 32.3169 368.896 26.6439C368.955 20.9119 369.99 16.1253 371.999 12.2842C374.067 8.44314 376.933 5.57711 380.597 3.68612C384.261 1.73603 388.486 0.760986 393.272 0.760986C399.064 0.760986 403.909 2.32697 407.809 5.45892C411.769 8.59088 414.28 13.082 415.344 18.9322H411.178C410.291 14.2048 408.223 10.6296 404.973 8.20677C401.723 5.72484 397.823 4.48388 393.272 4.48388C387.009 4.48388 382.045 6.37487 378.381 10.1569C374.776 13.9388 372.974 19.3754 372.974 26.4667C372.974 33.7943 374.747 39.349 378.292 43.131C381.897 46.8539 386.772 48.7154 392.918 48.7154C397.941 48.7154 402.077 47.4744 405.328 44.9925C408.578 42.5105 410.616 38.9649 411.444 34.3556H415.787C414.664 40.0877 412.153 44.5493 408.253 47.7403C404.352 50.8723 399.241 52.4383 392.918 52.4383Z" fill="black"/>
<path d="M424.808 51.5519V1.64739H440.32C444.516 1.64739 448.062 2.06104 450.957 2.88835C453.853 3.71566 456.039 5.16345 457.517 7.23173C459.053 9.24091 459.821 12.0478 459.821 15.6525C459.821 17.8981 459.408 19.9959 458.58 21.946C457.753 23.8961 456.453 25.4621 454.68 26.6439C452.966 27.8258 450.721 28.4167 447.943 28.4167C450.662 28.4167 452.671 29.0077 453.971 30.1895C455.33 31.3123 456.216 32.7601 456.63 34.5329C457.103 36.2466 457.339 38.049 457.339 39.94C457.398 41.831 457.457 43.5742 457.517 45.1698C457.635 46.7062 457.989 47.8585 458.58 48.6267C459.23 49.3358 460.383 49.3949 462.037 48.804V51.7291C461.742 51.9655 461.151 52.1723 460.264 52.3496C459.437 52.5269 458.521 52.4678 457.517 52.1723C456.512 51.8769 455.655 51.1973 454.946 50.1336C454.237 49.0699 453.882 47.4449 453.882 45.2584C453.882 41.831 453.735 39.0831 453.439 37.0149C453.203 34.9466 452.641 33.3806 451.755 32.3169C450.928 31.1941 449.598 30.4555 447.766 30.1009C445.993 29.6873 443.57 29.4804 440.498 29.4804C437.425 29.4804 433.554 29.51 428.886 29.5691V51.5519H424.808ZM428.886 26.2894H441.916C446.702 26.2894 450.278 25.5803 452.641 24.162C455.005 22.6847 456.187 19.9073 456.187 15.8298C456.187 12.6979 455.537 10.3932 454.237 8.91589C452.996 7.37946 451.134 6.37487 448.653 5.90212C446.23 5.42937 443.275 5.193 439.789 5.193H428.886V26.2894Z" fill="black"/>
<path d="M487.967 48.0062V51.5519H470.062V48.0062H477.064V5.28164H470.062V1.64739H487.967V5.28164H481.053V48.0062H487.967Z" fill="black"/>
<path d="M495.523 51.5519L513.872 1.64739H520.52L539.046 51.5519H534.791L528.852 35.1534H505.628L499.601 51.5519H495.523ZM517.24 3.42019L506.958 31.6078H527.522L517.24 3.42019Z" fill="black"/>
<path d="M536.966 5.28164V1.64739H574.195V5.28164H557.619V51.5519H553.63V5.28164H536.966Z" fill="black"/>
<path d="M598.162 48.0062V51.5519H580.256V48.0062H587.259V5.28164H580.256V1.64739H598.162V5.28164H591.248V48.0062H598.162Z" fill="black"/>
<path d="M643.532 1.64739H647.964L629.792 51.5519H622.967L604.884 1.64739H609.228L626.424 49.5131L643.532 1.64739Z" fill="black"/>
<path d="M675.448 52.7928C667.648 52.7928 661.709 50.4586 657.632 45.7902C653.554 41.0628 651.515 34.7102 651.515 26.7326C651.515 21.4733 652.402 16.9231 654.175 13.082C655.947 9.18181 658.607 6.16804 662.152 4.04068C665.698 1.85422 670.13 0.760986 675.448 0.760986C683.308 0.760986 689.247 3.12473 693.265 7.85221C697.283 12.5206 699.293 18.8141 699.293 26.7326C699.293 31.8737 698.377 36.4239 696.545 40.3832C694.772 44.2834 692.113 47.3267 688.567 49.5131C685.021 51.6996 680.649 52.7928 675.448 52.7928ZM675.448 48.9813C682.008 48.9813 686.972 46.9426 690.34 42.8651C693.708 38.7877 695.392 33.4102 695.392 26.7326C695.392 20.055 693.738 14.7071 690.428 10.6887C687.119 6.61124 682.126 4.57252 675.448 4.57252C668.889 4.57252 663.925 6.5226 660.557 10.4228C657.188 14.3229 655.504 19.7596 655.504 26.7326C655.504 33.3511 657.129 38.7286 660.379 42.8651C663.689 46.9426 668.712 48.9813 675.448 48.9813Z" fill="black"/>
<path d="M14.014 71.6087H18.7833V90H10.0286L6.59865 73.6014H6.53332V90H1.79666V71.6087H9.89798L13.9486 88.0073H14.014V71.6087ZM21.1641 90L26.4561 71.6087H33.9368L39.4247 90H34.5574L33.3488 85.394H27.2401L26.0641 90H21.1641ZM30.2781 73.5034L28.1221 81.9314H32.4668L30.2781 73.5034ZM50.0029 90.4573C47.2589 90.4573 45.1791 89.7387 43.7635 88.3013C42.3698 86.8422 41.6729 84.7951 41.6729 82.16V71.6087H46.5729V82.1274C46.5729 83.042 46.6926 83.7716 46.9322 84.316C47.1717 84.8387 47.4657 85.2307 47.8142 85.492C48.1844 85.7533 48.5655 85.9276 48.9575 86.0147C49.3495 86.08 49.698 86.1127 50.0029 86.1127C50.5037 86.1127 51.0155 86.0365 51.5382 85.884C52.0826 85.7316 52.54 85.3722 52.9102 84.806C53.2804 84.2398 53.4655 83.3469 53.4655 82.1274V71.6087H58.3655V82.16C58.3655 84.8387 57.6686 86.8967 56.2748 88.334C54.9028 89.7496 52.8122 90.4573 50.0029 90.4573ZM69.1539 90.3267C68.1086 90.3267 67.085 90.2069 66.0832 89.9673C65.0815 89.7278 64.1777 89.3467 63.3719 88.824C62.5661 88.2796 61.9128 87.5827 61.4119 86.7333C60.9328 85.884 60.6932 84.8605 60.6932 83.6627H65.2666C65.2666 83.7933 65.3101 84.0002 65.3972 84.2833C65.5061 84.5447 65.7021 84.8278 65.9852 85.1327C66.2901 85.4376 66.7148 85.6989 67.2592 85.9167C67.8255 86.1127 68.5768 86.2107 69.5132 86.2107C69.927 86.2107 70.3517 86.178 70.7872 86.1127C71.2228 86.0473 71.593 85.9167 71.8979 85.7207C72.2028 85.5029 72.3552 85.1762 72.3552 84.7407C72.3552 84.2833 72.1374 83.924 71.7019 83.6627C71.2881 83.4013 70.7328 83.1945 70.0359 83.042C69.3608 82.8678 68.6095 82.6936 67.7819 82.5193C66.9761 82.3451 66.1703 82.1274 65.3646 81.866C64.5588 81.6047 63.8184 81.2562 63.1432 80.8207C62.4899 80.3634 61.9781 79.7862 61.6079 79.0894C61.2595 78.3707 61.1179 77.4778 61.1832 76.4107C61.2921 74.7991 62.0544 73.5469 63.4699 72.654C64.8855 71.7394 66.8563 71.282 69.3826 71.282C70.7328 71.282 71.9959 71.5216 73.1719 72.0007C74.3697 72.4798 75.3388 73.2094 76.0792 74.1894C76.8414 75.1694 77.2225 76.4107 77.2225 77.9134H72.8126C72.8126 77.2383 72.5839 76.7374 72.1266 76.4107C71.691 76.0623 71.1574 75.8336 70.5259 75.7247C69.9161 75.6158 69.3608 75.5614 68.8599 75.5614C68.0541 75.5614 67.379 75.6594 66.8346 75.8554C66.3119 76.0514 66.0506 76.4325 66.0506 76.9987C66.0506 77.4996 66.2683 77.8916 66.7039 78.1747C67.1395 78.436 67.7057 78.6538 68.4026 78.828C69.0995 78.9805 69.8617 79.1438 70.6892 79.318C71.5386 79.4705 72.377 79.6665 73.2046 79.906C74.0321 80.1456 74.7726 80.4831 75.4259 80.9187C76.101 81.3325 76.6237 81.8878 76.9939 82.5847C77.3859 83.2816 77.5383 84.1745 77.4512 85.2633C77.3423 86.8531 76.5365 88.0944 75.0339 88.9873C73.553 89.8802 71.593 90.3267 69.1539 90.3267ZM88.2307 90.3267C87.1853 90.3267 86.1618 90.2069 85.16 89.9673C84.1582 89.7278 83.2545 89.3467 82.4487 88.824C81.6429 88.2796 80.9896 87.5827 80.4887 86.7333C80.0096 85.884 79.77 84.8605 79.77 83.6627H84.3434C84.3434 83.7933 84.3869 84.0002 84.474 84.2833C84.5829 84.5447 84.7789 84.8278 85.062 85.1327C85.3669 85.4376 85.7916 85.6989 86.336 85.9167C86.9022 86.1127 87.6536 86.2107 88.59 86.2107C89.0038 86.2107 89.4285 86.178 89.864 86.1127C90.2996 86.0473 90.6698 85.9167 90.9747 85.7207C91.2796 85.5029 91.432 85.1762 91.432 84.7407C91.432 84.2833 91.2142 83.924 90.7787 83.6627C90.3649 83.4013 89.8096 83.1945 89.1127 83.042C88.4376 82.8678 87.6862 82.6936 86.8587 82.5193C86.0529 82.3451 85.2471 82.1274 84.4414 81.866C83.6356 81.6047 82.8951 81.2562 82.22 80.8207C81.5667 80.3634 81.0549 79.7862 80.6847 79.0894C80.3363 78.3707 80.1947 77.4778 80.26 76.4107C80.3689 74.7991 81.1311 73.5469 82.5467 72.654C83.9622 71.7394 85.9331 71.282 88.4593 71.282C89.8096 71.282 91.0727 71.5216 92.2487 72.0007C93.4464 72.4798 94.4156 73.2094 95.156 74.1894C95.9182 75.1694 96.2993 76.4107 96.2993 77.9134H91.8893C91.8893 77.2383 91.6607 76.7374 91.2033 76.4107C90.7678 76.0623 90.2342 75.8336 89.6027 75.7247C88.9929 75.6158 88.4376 75.5614 87.9367 75.5614C87.1309 75.5614 86.4558 75.6594 85.9114 75.8554C85.3887 76.0514 85.1274 76.4325 85.1274 76.9987C85.1274 77.4996 85.3451 77.8916 85.7807 78.1747C86.2162 78.436 86.7825 78.6538 87.4793 78.828C88.1762 78.9805 88.9385 79.1438 89.766 79.318C90.6153 79.4705 91.4538 79.6665 92.2813 79.906C93.1089 80.1456 93.8493 80.4831 94.5027 80.9187C95.1778 81.3325 95.7004 81.8878 96.0707 82.5847C96.4627 83.2816 96.6151 84.1745 96.528 85.2633C96.4191 86.8531 95.6133 88.0944 94.1107 88.9873C92.6298 89.8802 90.6698 90.3267 88.2307 90.3267ZM118.907 71.6087H120.475L125.996 89.2487L131.549 71.6087H133.182L127.237 90H124.787L119.691 73.6667L114.367 90H111.884L106.233 71.6087H107.833L113.158 89.2487L118.907 71.6087ZM143.396 90.4573C140.521 90.4573 138.333 89.5971 136.83 87.8767C135.327 86.1345 134.576 83.7933 134.576 80.8534C134.576 78.9151 134.903 77.2383 135.556 75.8227C136.209 74.3854 137.189 73.2747 138.496 72.4907C139.803 71.6849 141.436 71.282 143.396 71.282C146.292 71.282 148.481 72.1532 149.962 73.8954C151.443 75.6158 152.183 77.9351 152.183 80.8534C152.183 82.748 151.846 84.4249 151.171 85.884C150.517 87.3213 149.537 88.4429 148.231 89.2487C146.924 90.0544 145.312 90.4573 143.396 90.4573ZM143.396 89.0527C145.813 89.0527 147.643 88.3013 148.884 86.7987C150.125 85.296 150.746 83.3142 150.746 80.8534C150.746 78.3925 150.136 76.4216 148.917 74.9407C147.697 73.438 145.857 72.6867 143.396 72.6867C140.979 72.6867 139.149 73.4054 137.908 74.8427C136.667 76.28 136.046 78.2836 136.046 80.8534C136.046 83.2925 136.645 85.2742 137.843 86.7987C139.062 88.3013 140.913 89.0527 143.396 89.0527ZM155.567 90V71.6087H161.284C162.83 71.6087 164.137 71.7612 165.204 72.066C166.271 72.3709 167.077 72.9045 167.621 73.6667C168.187 74.4071 168.47 75.4416 168.47 76.77C168.47 77.5976 168.318 78.3707 168.013 79.0894C167.708 79.808 167.229 80.3851 166.576 80.8207C165.944 81.2562 165.117 81.474 164.093 81.474C165.095 81.474 165.835 81.6918 166.314 82.1274C166.815 82.5411 167.142 83.0747 167.294 83.728C167.469 84.3596 167.556 85.0238 167.556 85.7207C167.577 86.4176 167.599 87.06 167.621 87.648C167.665 88.2142 167.795 88.6389 168.013 88.922C168.253 89.1833 168.677 89.2051 169.287 88.9873V90.0653C169.178 90.1524 168.96 90.2287 168.634 90.294C168.329 90.3593 167.991 90.3376 167.621 90.2287C167.251 90.1198 166.935 89.8693 166.674 89.4773C166.412 89.0853 166.282 88.4864 166.282 87.6807C166.282 86.4176 166.227 85.4049 166.118 84.6427C166.031 83.8805 165.824 83.3033 165.498 82.9113C165.193 82.4976 164.703 82.2254 164.028 82.0947C163.374 81.9422 162.481 81.866 161.349 81.866C160.217 81.866 158.79 81.8769 157.07 81.8987V90H155.567ZM157.07 80.69H161.872C163.636 80.69 164.953 80.4287 165.824 79.906C166.695 79.3616 167.131 78.338 167.131 76.8354C167.131 75.6811 166.891 74.8318 166.412 74.2874C165.955 73.7211 165.269 73.3509 164.354 73.1767C163.461 73.0025 162.373 72.9154 161.088 72.9154H157.07V80.69ZM172.8 90.0327V71.6087H174.302V81.6374L184.756 71.6087H186.683V71.9354L178.549 79.514L187.075 89.6733V90H185.311L177.471 80.5267L174.302 83.4667V90.0327H172.8Z" fill="black"/>
</svg>
